<?xml version="1.0" encoding="UTF-8" standalone="no"?>
<svg
   width="446"
   height="570"
   version="1.1"
   id="svg9"
   sodipodi:docname="map_chiba_noline.svg"
   inkscape:version="1.4 (86a8ad7, 2024-10-11)"
   xmlns:inkscape="http://www.inkscape.org/namespaces/inkscape"
   xmlns:sodipodi="http://sodipodi.sourceforge.net/DTD/sodipodi-0.dtd"
   xmlns="http://www.w3.org/2000/svg"
   xmlns:svg="http://www.w3.org/2000/svg"
   xmlns:rdf="http://www.w3.org/1999/02/22-rdf-syntax-ns#"
   xmlns:cc="http://creativecommons.org/ns#"
   xmlns:dc="http://purl.org/dc/elements/1.1/">
  <defs
     id="defs9" />
  <sodipodi:namedview
     id="namedview9"
     pagecolor="#ffffff"
     bordercolor="#000000"
     borderopacity="0.25"
     inkscape:showpageshadow="2"
     inkscape:pageopacity="0.0"
     inkscape:pagecheckerboard="0"
     inkscape:deskcolor="#d1d1d1"
     inkscape:zoom="0.99243057"
     inkscape:cx="222.6856"
     inkscape:cy="285.15849"
     inkscape:window-width="1264"
     inkscape:window-height="1081"
     inkscape:window-x="-9"
     inkscape:window-y="0"
     inkscape:window-maximized="0"
     inkscape:current-layer="svg9" />
  <title
     id="title1">千葉県行政区画地図 (2013年1月1日)</title>
  <desc
     id="desc1">Author: Lincun / 更新：Knua</desc>
  <rect
     fill="#eeeeee"
     x="0"
     y="0"
     width="446"
     height="570"
     id="rect1" />
  <g
     stroke="#000000"
     stroke-width="0.2"
     stroke-linejoin="round"
     id="g8"
     transform="translate(0,-0.35625)"
     style="stroke-width:0;stroke-dasharray:none">
    <path
       fill="#cccccc"
       d="m 6,-1 2,2 6,13 1,9 h 6 l 7,3 3,-4 v -1 l 1,-3 3,-2 5,4 3,12 4,5 20,20 4,11 9,7 4,1 4,1 1,2 -2,5 2,5 5,2 16,12 8,-1 5,5 11,5 4,6 7,-4 13,6 7,12 3,1 4,-1 13,-7 4,-1 7,4 7,-3 9,-6 5,1 6,3 h 5 l 10,-8 3,-6 7,-3 h 1 l 7,-3 9,1 4,-2 5,-1 3,-6 10,8 7,2 -5,-4 -1,-6 1,-2 h 2 l 1,-6 5,-6 8,8 16,10 3,5 4,2 5,5 6,12 1,2 6,2 10,2 8,4 6,5 2,8 3,6 5,6 25,18 4,2 6,1 4,-1 1,-2 -3,-2 v 1 l -5,-4 -9,-13 -22,-34 -1,-6 -12,-21 1,-8 v -6 6 l -1,6 -1,2 h -2 v -1 l -8,6 v 5 l 5,8 -2,1 -4,-8 -2,-9 -6,-5 h 1 l 2,2 v -2 l 2,1 -1,1 4,3 7,-5 v -2 l 1,-1 2,-1 -3,-2 -4,-10 3,-2 2,2 -2,-2 -4,1 v -2 1 l -1,1 1,-1 -4,-1 -11,-25 -10,-24 -9,-27 z m -7,153 h 3 l 4,3 h 5 l 1,2 h 5 v 3 l 3,-3 h 3 l 2,-3 -4,-7 2,-1 5,-2 4,4 6,1 7,-1 2,-2 v -1 l 1,1 -1,5 2,3 4,-3 3,2 3,3 2,-2 5,-1 1,2 -2,2 2,3 6,-1 -2,-5 1,-11 -1,-5 4,-16 -3,-12 -5,-9 -5,-8 -5,-3 -5,-10 v -4 l -3,-1 v -5 l -4,-6 1,-3 -1,-9 1,-4 -4,-5 -6,-8 -5,-13 -3,4 -7,-3 H 15 L 14,14 8,1 6,-1 h -7 z m 0,107 5,3 -2,4 2,3 5,-1 3,-2 3,1 2,-2 6,1 15,10 4,-8 -9,-14 -5,1 -2,3 -2,-1 h -2 l -4,-3 v -2 h -8 l 15,-1 2,-2 v 2 h 6 l 1,-1 -2,-3 -5,1 3,-3 -1,-2 -5,-9 v -6 -2 l -2,-1 v -2 l 3,1 -1,-4 1,-2 h 1 l 4,3 4,8 2,-2 2,4 2,-2 -1,-4 2,-1 v -1 l 10,-2 v 4 l -4,2 7,-1 v -9 l 1,-1 h 2 v 6 l 4,2 5,-1 3,-2 1,-12 v -1 -2 l 8,-3 4,-6 -1,-4 -5,-6 -2,-3 2,-6 -4,-4 -4,-8 1,-2 4,-3 v -2 l -6,1 -2,-3 2,-2 -1,-2 -5,1 -2,2 -3,-3 -3,-2 -4,3 -2,-3 1,-5 -1,-1 v 1 l -2,2 -7,1 -6,-1 -4,-4 -5,2 -2,1 4,7 -2,3 h -3 l -3,3 v -3 h -5 l -1,-2 H 6 l -4,-3 h -3 z m 24,-6 3,3 3,-4 h -6 z m -4,1 2,1 2,-1 -2,-2 z m 13,-26 -1,-3 -3,1 2,-1 1,2 -4,2 1,3 h 1 l 5,8 2,-4 -4,-6 1,-1 z m 16,-1 1,5 1,-1 2,4 1,-8 z m -15,3 4,5 1,-2 -3,-5 z m 27,-4 1,-2 2,1 v 1 -1 l -1,-1 z m -14,-3 1,3 1,-1 v -1 l 3,-1 h -3 v -1 z m 11,2 v -1 l 3,1 v -1 l -2,-1 z m -58,190 12,-1 -1,-3 H 7 l 1,-1 H 6 v -1 l 2,-3 4,2 v -4 h -2 l -2,-4 v -2 l 3,3 h 3 v -3 l 2,-1 3,-2 -2,-2 -3,-1 -1,-2 -5,1 -9,-2 z m 0,-90 1,1 -1,3 1,-3 z m 0,-31 1,-1 -1,-2 z m 0,-4 1,-1 v 1 l 1,-1 -1,1 1,4 6,7 4,-2 6,-4 -2,-4 1,-1 -1,-2 4,4 4,-3 1,-2 1,2 4,-3 2,-3 h -5 v -3 l 3,-2 1,3 1,-2 4,3 3,-6 -15,-10 -6,-1 -2,2 -3,-1 -3,2 -5,1 -2,-3 2,-4 -5,-3 z m 0,17 1,1 3,-3 -2,-3 -2,2 z m 0,-5 1,-1 -1,-3 z"
       id="path1"
       style="stroke-width:0;stroke-dasharray:none" />
    <path
       fill="#f6bad3"
       d="m 210,289 v -2 l 1,-5 4,-4 1,-1 2,2 3,-2 -5,-2 1,-3 -4,-6 1,-2 h 1 2 l 1,-5 -2,-4 v -2 l -5,-4 v -2 h 2 -1 l -6,-6 1,-2 1,-1 v -4 -5 l -3,1 h -3 l -3,-3 -1,1 -6,-3 v -5 l -3,-3 -3,1 1,3 -5,8 h -3 v -3 l 4,-3 -4,-1 v -2 l -2,2 1,-2 -3,-3 -2,4 1,-3 -3,3 -2,-1 -1,-3 -2,-5 1,-6 -1,5 -4,-1 h -1 l 2,-1 -2,-3 1,-4 3,-2 2,2 -2,2 2,-2 v 2 -3 l -6,-3 -5,-1 v -4 l -4,-3 -7,10 -4,-1 -6,8 -1,-1 v 1 l -2,-1 -1,1 -1,-1 -1,1 -2,-1 -3,4 -5,8 23,25 1,-3 -3,-4 1,-1 4,4 2,-1 -1,4 -2,1 4,1 2,-4 v 5 l 4,-2 v 2 l -3,1 1,8 5,2 -13,1 v 1 l 9,5 h 2 l 4,3 1,1 1,-4 2,1 2,2 4,4 1,-1 6,2 5,-2 1,-2 2,1 4,-2 1,2 1,-3 4,3 1,2 -1,3 -3,2 2,1 h -1 l 4,8 8,1 v 3 h 3 l -1,-3 4,1 z m -69,-43 2,9 9,-1 -3,-7 z"
       id="path2"
       style="stroke-width:0;stroke-dasharray:none" />
    <path
       fill="#f6bad3"
       d="m 74,551 7,-1 8,-4 v -4 l 2,1 5,-7 2,-6 -2,-7 4,-9 2,-8 6,-7 16,-13 h 1 l 7,-4 6,2 v -3 h 3 v -1 h -1 l -1,-1 2,-1 1,-2 5,-1 1,-1 -2,-2 1,-3 3,-1 h -1 l 1,-1 -1,-4 6,-6 6,-2 5,2 3,-3 9,2 1,-3 2,-1 2,2 -1,2 2,4 4,-2 6,-1 h 3 l -1,-2 4,-2 2,-1 -1,-3 h 3 l 1,-1 3,1 2,-1 1,3 7,-4 -1,-3 2,-2 h 4 l 2,3 h -1 v 4 l 2,-2 h 4 l 2,-11 4,-4 1,-2 h -5 l -6,1 -1,-5 -3,-2 1,-4 h 1 l -1,-4 4,-3 h 1 l 1,-2 1,1 2,-3 3,4 4,-2 2,2 2,-1 1,4 -2,3 3,1 2,2 1,-1 3,2 4,-5 -1,-3 3,-7 2,-11 -2,-2 1,1 -1,-1 h 2 l -2,-1 -1,-4 6,-17 v -3 l -4,-8 -2,-1 -4,-1 -1,1 -5,1 1,-6 -12,-1 -1,1 -6,-1 -2,1 -4,3 h -3 l -3,7 -4,1 -2,2 2,8 -4,3 v 2 l -4,1 -1,1 2,3 7,3 3,5 -2,2 v 4 l -4,3 -6,1 3,4 -4,1 v 2 l -2,1 v 9 l -3,7 -4,-4 -5,4 -4,-2 -3,4 h -1 l -1,2 -5,2 -4,-3 v -4 l -4,-11 -1,-1 -3,-8 v -2 l 4,-8 h 2 l -1,-2 1,1 v -1 l 4,-1 2,2 1,-4 1,-7 4,-1 5,-4 -2,-10 5,4 1,-2 1,2 3,-3 2,1 -2,-5 -2,-5 -3,-3 -1,-13 v -2 l -2,1 -2,-2 1,-4 h 2 l -2,-6 h -2 l -2,-7 -3,-5 v -1 l -3,-5 4,-2 -1,-2 h 2 v -3 l -6,-4 2,-2 -1,-3 h 5 v -3 l 3,2 2,-2 v -2 h 3 l -1,-2 3,-1 8,3 4,-1 2,6 -3,4 1,1 1,8 3,3 1,3 1,1 -1,5 -5,3 1,1 2,-1 v 3 l 2,1 6,-3 1,3 -2,3 2,4 h 9 l 1,-1 2,-4 h 3 l -3,-5 v -1 h 2 l 2,-1 v -5 h 4 l 1,-1 -2,-2 2,1 -1,-2 h 4 l 1,-3 -3,-1 v -2 l 1,-2 -1,1 1,-4 2,-1 1,-3 3,-2 v -4 h 4 v 3 h 2 l 2,-3 -1,-6 -2,-3 -6,1 -2,-2 -2,6 -8,-5 2,-1 -1,-2 -3,1 -1,-1 -7,2 -5,-1 -4,3 v -3 l -4,-1 1,3 h -3 v -3 l -8,-1 -4,-8 h 1 l -2,-1 3,-2 1,-3 -1,-2 -4,-3 -1,3 -1,-2 -4,2 -2,-1 -1,2 -5,2 -6,-2 -1,1 -4,-4 -2,-2 -2,-1 -1,4 -1,-1 -4,-3 h -2 v 1 l -6,-3 -4,2 v 2 l 2,-1 -2,1 2,-1 1,1 -2,2 4,2 -2,1 -8,-7 -2,2 v 3 l -2,-2 -3,4 2,2 -1,2 -3,-2 -4,6 3,3 -1,1 -3,-2 -4,5 4,3 v 1 l -5,-2 -2,3 1,2 -1,-1 -2,2 3,1 1,6 -5,-5 -4,2 2,3 -1,1 -2,-3 -2,1 3,6 -2,2 v -2 l -3,-8 -6,3 3,9 -7,2 -1,-4 2,2 2,-2 v -3 l -5,1 -1,6 h -3 l -8,2 v -1 l -6,5 v 3 l -1,2 2,2 -2,-2 v 2 l 1,1 -1,1 3,8 4,1 1,1 -1,2 h -1 l -6,3 v 1 l 2,-1 1,2 -1,1 -1,-1 h -5 l 4,6 -4,-2 -9,-2 -6,-4 -3,4 6,5 1,2 -2,1 -2,1 -3,-6 -6,6 3,4 h 3 v 2 l -6,4 v -1 l -2,1 1,3 -2,1 v -2 l -3,2 -8,1 18,6 7,6 v 4 l -2,-1 v 3 l 6,8 2,5 v 10 l -5,3 -9,5 -3,4 -2,7 v 4 l 2,2 -2,4 4,-1 10,-3 7,4 5,-2 4,2 5,8 h 7 l -1,3 v 1 l -1,1 -1,3 -2,3 h -7 l -7,2 -4,-1 -7,2 -1,3 -3,-1 -1,1 2,7 -1,3 -7,2 v 2 1 l 2,2 2,7 -2,4 -3,-1 -1,-2 -2,3 6,3 3,-1 3,4 h 3 l 3,6 -1,7 -1,3 -4,1 v -3 h -2 -5 l 1,2 -2,4 -8,2 -5,1 -4,-3 -3,2 h -2 l -2,-2 -1,2 1,2 -1,2 3,3 3,2 4,-1 15,9 2,4 -2,3 h 2 l -1,4 2,1 3,3 9,-1 8,1 h 1 v 2 l 2,-3 z m 184,-269 2,-4 -4,-3 -4,-1 2,-2 1,1 v -3 l 2,3 3,-1 2,2 2,-6 -1,-5 h 3 l 1,-3 h 2 v -4 l 2,-1 11,10 8,-12 12,-13 -6,-6 -4,3 -3,-3 2,-4 h 2 v -3 l -2,-2 -3,2 -8,-5 5,-5 -1,-2 -2,1 -7,-4 -3,3 -4,-8 -6,-1 -2,2 -4,-3 2,-5 h -4 v 2 l -2,-1 -2,-2 -1,2 -2,-4 -1,1 1,-1 -2,-2 h 5 l 1,-4 -3,-1 v -4 h -3 l -1,-1 1,-2 v -4 h 2 l 5,7 1,-1 -2,-4 v -3 h -1 l 1,-1 2,2 2,-2 3,1 -1,-5 -1,-1 -4,-1 h 3 l 1,-3 -4,-1 3,-1 2,-3 v -4 l 2,-1 h 2 l 2,5 7,-3 -2,-2 4,-1 v -7 l 3,-1 6,4 -1,3 h 4 2 l 1,-3 4,-2 3,3 -1,3 h 2 l -1,2 8,1 4,4 2,-1 3,6 -5,2 -2,-2 -1,3 -2,1 -3,-4 -4,1 1,3 -1,8 -6,4 v 2 l 3,4 3,3 -2,3 2,6 4,1 1,2 -2,1 2,1 3,-3 2,5 4,1 -4,5 7,9 3,4 24,-20 14,-9 15,-5 5,1 3,4 h 3 v -2 2 l -2,1 v 2 l 3,-3 5,-1 3,-2 17,-6 8,-1 3,1 v 3 l 1,2 1,-1 1,2 7,2 -1,-4 3,-2 -2,-3 2,-2 -1,-4 1,-3 -3,-5 h -4 l -1,2 -4,1 -6,-1 -4,-2 -25,-18 -5,-6 -3,-6 -10,5 -1,3 4,1 v 3 l 2,1 -2,4 -4,-4 -3,1 1,2 -3,2 -1,3 -7,-11 v 2 l -2,-1 -3,1 -3,-4 -2,1 -1,-2 1,-1 3,-2 v -2 l 3,-1 v -7 l 2,1 1,-1 v -4 l -2,-5 1,-4 -6,-2 -1,-2 -6,-12 -5,-5 -4,-2 -3,-5 -16,-10 -8,-8 -5,6 -1,6 h -2 l -1,2 1,6 5,4 -7,-2 -10,-8 -3,6 -5,1 1,2 -3,2 -1,4 -1,9 6,1 v 2 l -1,2 h -4 l -1,1 v -3 h -2 l -6,6 h -3 l 2,-1 -2,-1 h 2 v -8 l -3,-5 -2,1 -4,-6 1,-2 -7,3 -3,6 -10,8 h -5 l -7,-3 -3,5 v 4 l -2,1 v 2 l 2,-1 2,8 -3,5 -3,-2 -5,4 -1,6 -1,-9 h -2 v 1 l -3,-1 3,-3 -4,-2 v -4 l -13,2 -11,-4 -4,1 -3,-1 -7,-12 -13,-6 -7,4 -4,-6 -11,-5 -5,-5 -8,1 -16,-12 -5,-2 -2,-5 2,-5 -2,-3 H 84 L 76,72 71,68 67,57 47,37 43,32 40,20 l -5,-4 -3,2 -1,3 v 1 l 5,13 6,8 4,5 -1,4 1,9 -1,3 4,6 v 5 l 3,1 v 4 l 5,10 5,3 5,8 5,9 3,12 -4,16 1,5 -1,11 2,5 v 2 l -4,3 -1,2 4,8 4,4 -2,6 2,3 5,6 1,4 -4,6 -8,3 v 2 1 l -1,12 -3,2 1,1 -2,2 v 4 l 6,1 2,-1 1,3 16,-10 -8,-7 4,-5 6,-1 v -2 l -6,2 1,-3 2,1 3,-3 2,4 4,-4 2,-1 6,1 v 2 l 2,2 h -2 v 4 l 6,-1 1,2 h -6 v 3 l 7,-2 5,3 5,-8 3,-4 2,1 1,-1 1,1 1,-1 2,1 v -1 l 1,1 6,-8 4,1 7,-10 4,3 v 4 l 5,1 6,3 v 3 -2 l -2,2 2,-2 -2,-2 -3,2 -1,4 2,3 -2,1 h 1 l 4,1 1,-5 -1,6 2,5 1,3 2,1 3,-3 -1,3 2,-4 3,3 -1,2 2,-2 v 2 l 4,1 -4,3 v 3 h 3 l 5,-8 -1,-3 3,-1 3,3 v 5 l 6,3 1,-1 3,3 h 3 l 3,-1 v 5 4 l -1,1 -1,2 6,6 h 1 -2 v 2 l 5,4 v 2 l 2,4 3,3 5,-2 v 1 l 3,-1 v 3 l 4,5 v 3 l 1,-1 2,1 1,-3 3,2 -1,1 3,1 -1,5 1,2 8,2 -1,5 h 2 l 2,-5 4,2 z m -7,-12 2,1 -1,2 z m -153,-65 -2,3 h 1 l 1,1 h 3 l 3,1 -3,-3 h 3 l -1,-1 z m 107,-20 -1,-2 h 2 l -1,-4 3,-3 -1,-4 6,-1 1,3 h 3 v -3 l 3,2 1,2 1,4 h 2 -5 l -3,4 h 2 l 1,5 2,2 -4,4 -2,1 -3,-2 -1,2 -3,2 -2,-7 h -3 v -2 l -3,-2 4,1 z m 141,-32 h 1 l 2,-2 v -2 l -1,3 z"
       id="path3"
       style="stroke-width:0;stroke-dasharray:none" />
    <path
       fill="#f6bad3"
       d="m 51,464 1,-1 3,1 1,-3 7,-2 4,1 7,-2 h 7 l 2,-3 1,-3 1,-1 v -1 l 1,-3 h -7 l -5,-8 -4,-2 -5,2 -7,-4 -10,3 -4,1 4,2 4,9 h -2 l 1,2 -5,6 2,1 -1,1 -1,4 z m 128,-31 1,-2 h 1 l 3,-4 4,2 5,-4 4,4 3,-7 v -9 l 2,-1 v -2 l 4,-1 -3,-4 6,-1 4,-3 v -4 l 2,-2 -3,-5 -7,-3 -2,-3 1,-1 4,-1 v -2 l 4,-3 -2,-8 2,-2 4,-1 3,-7 h 3 l 4,-3 2,-1 6,1 1,-1 12,1 -1,6 5,-1 1,-1 4,1 -2,-8 v -15 l -3,-4 -2,2 -5,-1 -3,4 h -2 l -4,-2 v -3 l -3,2 -4,-2 h -3 l -2,4 -1,1 h -9 l -2,-4 2,-3 -1,-3 -6,3 -2,-1 v -3 l -2,1 -1,-1 5,-3 1,-5 -1,-1 -1,-3 -3,-3 -1,-8 -1,-1 3,-4 -2,-6 -4,1 -8,-3 -3,1 1,2 h -3 v 2 l -2,2 -3,-2 v 3 h -5 l 1,3 -2,2 6,4 v 3 h -2 l 1,2 -4,2 3,5 v 1 l 3,5 2,7 h 2 l 2,6 h -2 l -1,4 2,2 2,-1 v 2 l 1,13 3,3 2,5 2,5 -2,-1 -3,3 -1,-2 -1,2 -5,-4 2,10 -5,4 -4,1 -1,7 -1,4 -2,-2 -4,1 v 1 l -1,-1 1,2 h -2 l -4,8 v 2 l 3,8 1,1 4,11 v 4 l 4,3 z m 70,-6 2,-4 -3,-2 -1,1 -2,-2 -3,-1 2,-3 -1,-4 -2,1 -2,-2 -4,2 -3,-4 -2,3 -1,-1 -1,2 h -1 l -4,3 1,4 h -1 l -1,4 3,2 1,5 6,-1 h 5 l 2,-2 7,1 z m 7,-105 2,-8 4,-15 6,-12 6,-12 6,-6 2,-4 -11,-10 -2,1 v 4 h -2 l -1,3 h -3 l 1,5 -2,6 -2,-2 -3,1 -2,-3 v 3 l -1,-1 -2,2 4,1 4,3 -2,4 -1,1 -4,-2 -2,5 h -2 l 1,-5 -8,-2 -1,-2 1,-5 -3,-1 1,-1 -3,-2 -1,3 -2,-1 -1,1 v -3 l -4,-5 v -3 l -3,1 v -1 l -5,2 -3,-3 -1,5 h -2 -1 l -1,2 4,6 -1,3 5,2 -3,2 -2,-2 -1,1 -4,4 -1,5 v 2 l 4,-3 5,1 7,-2 1,1 3,-1 1,2 -2,1 8,5 2,-6 2,2 6,-1 2,3 1,6 -2,3 h -2 v -3 h -4 v 4 l -3,2 -1,3 -2,1 -1,4 1,-1 -1,2 v 2 l 3,1 9,2 v 3 z m 46,-82 12,-11 -3,-4 -7,-9 4,-5 -4,-1 -2,-5 -3,3 -2,-1 2,-1 -1,-2 -4,-1 -2,-6 2,-3 -3,-3 -3,-4 v -2 l 6,-4 1,-8 -1,-3 4,-1 3,4 2,-1 1,-3 2,2 5,-2 -3,-6 -2,1 -4,-4 -8,-1 1,-2 h -2 l 1,-3 -3,-3 -4,2 -1,3 h -2 -4 l 1,-3 -6,-4 -3,1 v 7 l -4,1 2,2 -7,3 -2,-5 h -2 l -2,1 v 4 l -2,3 -3,1 4,1 -1,3 h -3 l 4,1 1,1 1,5 -3,-1 -2,2 -2,-2 -1,1 h 1 v 3 l 2,4 -1,1 -5,-7 h -2 v 4 l -1,2 1,1 h 3 v 4 l 3,1 -1,4 h -5 l 2,2 -1,1 1,-1 2,4 1,-2 2,2 2,1 v -2 h 4 l -2,5 4,3 2,-2 6,1 4,8 3,-3 7,4 2,-1 1,2 -5,5 8,5 3,-2 2,2 v 3 h -2 l -2,4 3,3 4,-3 z m -81,-50 -2,-2 -1,-5 h -2 l 3,-4 h 5 -2 l -1,-4 -1,-2 -3,-2 v 3 h -3 l -1,-3 -6,1 1,4 -3,3 1,4 h -2 l 1,2 -1,2 -4,-1 3,2 v 2 h 3 l 2,7 3,-2 1,-2 3,2 2,-1 z m 144,-27 2,-4 -2,-1 v -3 l -4,-1 1,-3 10,-5 -2,-8 -6,-5 -8,-4 -10,-2 -1,4 2,5 v 4 l -1,1 -2,-1 v 7 l -3,1 v 2 l -3,2 -1,1 1,2 2,-1 3,4 3,-1 2,1 v -2 l 7,11 1,-3 3,-2 -1,-2 3,-1 z m -19,-10 2,-1 1,-3 v 2 l -2,2 z m -143,-1 1,-6 5,-4 3,2 3,-5 -2,-8 -2,1 v -2 l 2,-1 v -4 l 3,-5 -4,-1 -9,6 -7,3 -7,-4 -4,1 -13,7 11,4 13,-2 v 4 l 4,2 -3,3 3,1 v -1 h 2 z m 54,-24 6,-6 h 2 v 3 l 1,-1 h 4 l 1,-2 v -2 l -6,-1 1,-9 1,-4 3,-2 -1,-2 -4,2 -9,-1 -7,3 h -1 l -1,2 4,6 2,-1 3,5 v 8 h -2 l 2,1 -2,1 z m -6,142 1,3 1,-2 z m -24,58 3,1 -1,-2 z"
       id="path4"
       style="stroke-width:0;stroke-dasharray:none" />
    <path
       fill="#f6bad3"
       d="m 262,299 6,-12 -3,-2 v -1 l -7,-2 -1,1 -4,-2 -2,5 h -2 l 1,-5 -8,-2 -1,-2 1,-5 -3,-1 1,-1 -3,-2 -1,3 -2,-1 -1,1 v -3 l -4,-5 v -3 l -3,1 v -1 l -5,2 -3,-3 -1,5 h -2 -1 l -1,2 4,6 -1,3 5,2 -3,2 -2,-2 -1,1 -4,4 -1,5 v 2 l 4,-3 5,1 7,-2 1,1 3,-1 1,2 -2,1 8,5 2,-6 2,2 6,-1 2,3 1,6 z"
       id="path5"
       style="stroke-width:0;stroke-dasharray:none" />
    <!--大網白里市の市制に伴う色修正（2013年1月1日）-->
    <path
       fill="#f6bad3"
       d="m 254,338 v -6 l 2,-10 -9,-2 v -3 l -9,-2 -1,3 h -4 l 1,2 -2,-1 2,2 -1,1 h -4 v 5 l 1,2 -3,-1 h -2 v 1 l 3,5 4,2 3,-2 v 3 l 4,2 h 2 l 3,-4 5,1 2,-2 z"
       id="path6"
       style="stroke-width:0;stroke-dasharray:none" />
    <path
       fill="none"
       stroke-linecap="round"
       d="m 94,91 -3,4 -3,2 -2,2 -3,1 v 7 l -3,1 2,2 4,5 v -3 l -3,-4 3,-1 3,5 -2,1 4,1 v 6 l 3,-1 h -2 l -2,3 -2,-2 -3,3 1,2 1,-2 h 4 l 2,3 h -1 -3 l -1,3 5,-2 3,9 -1,1 v -2 l -1,1 -2,-1 -1,1 3,3 3,9 h 3 v 3 l 4,2 3,-5 2,1 -1,1 1,1 2,-1 v 2 l 1,-2 6,2 1,2 h -1 l 4,-2 -4,7 4,-7 2,-7 6,-8 2,-1 7,2 4,-1 2,3 6,-3 1,-6 -17,-4 -3,2 -5,-4 -4,2 -2,-2 -6,-1 -6,-4 1,-2 -2,-2 2,1 3,-3 h 2 l 3,-3 h -2 l 2,-2 1,3 4,-5 m -40,-7 -3,-2 v 2 l -3,-1 -1,1 -9,1 m 208,48 v -2 l 6,-4 -5,1 1,-4 5,-4 -3,-3 2,-2 1,1 1,-3 h -3 l -5,-8 -2,2 -2,-1 m -106,10 -5,2 -4,-3 -1,1 -1,-3 -2,2 m -61,5 h -2 l -3,-7 -4,2 -2,4 -5,3 1,1 -5,-1 m 134,41 -18,-12 -7,9 -7,-2 -6,-4 -4,-3 -9,-6 -7,-1 2,-4 3,-4 -9,-7 2,-5 m 62,32 -2,-4 1,-6 -4,-5 1,-5 m -92,0 -1,1 2,2 -2,2 -2,-1 -6,1 -2,1 v 3 h 2 l 4,1 v 2 l -3,-1 -2,8 1,1 v 3 l 3,-2 v 3 h 1 l 3,2 5,-1 1,2 h 1 -1 l -1,-2 1,-2 3,-4 -1,-2 3,1 2,-2 -3,-1 -2,-1 5,-5 -4,-2 m 29,1 -3,-1 -6,-7 -2,2 -2,9 -8,4 -3,-2 -4,2 m 268,30 -2,-2 -2,1 -1,-2 v 1 h -2 l -2,-1 2,-7 h 1 l -1,-1 2,-1 -1,-6 -1,2 2,-5 -3,5 -3,2 1,-2 h -3 v -6 l 1,-3 -1,-2 -6,-1 v -5 l -3,-1 m -27,-8 1,2 -4,3 h -3 l -2,4 -2,-4 -3,4 -5,3 h -1 l -3,5 -2,1 -2,-2 -1,-2 m -207,3 1,1 -1,-1 m -1,-9 h -6 l -1,2 h -3 l 1,4 -4,2 h 2 l -1,3 -1,1 -4,-2 1,-2 v -1 l -4,1 1,-2 -6,-3 -2,6 -4,2 m 95,-4 -6,3 4,1 -3,6 1,5 -6,4 3,1 -1,1 3,4 -1,3 m 84,-15 -2,-1 1,-4 -3,-1 4,-2 -4,2 -5,-7 -5,-3 -3,-5 -3,7 v 3 l -4,3 m -115,-2 2,4 h 3 v -3 l -2,-2 -3,1 m 232,36 -1,-3 -4,1 v -6 l -3,-1 1,-4 v -3 h -2 v -2 l -3,2 v -2 l -4,2 -1,-2 4,-3 4,1 v -7 l 1,-2 -4,-2 v 2 l -2,-1 -1,1 -3,-1 -3,1 v -1 l -1,-1 3,-2 -3,-4 m -60,33 -3,2 -5,-3 -2,2 1,-1 -2,-2 -5,1 -3,3 -9,-5 -2,-4 2,-5 -2,2 v -1 l -3,1 v -4 l -1,2 -1,-2 v -1 m -77,-31 -2,6 2,4 h -6 l 2,3 -5,4 2,3 -2,1 -1,7 3,2 -2,3 1,1 6,2 -3,1 1,3 h 1 m -43,6 v -2 l -1,-8 -5,-3 -3,3 2,-7 2,1 3,-1 1,-7 4,1 2,-1 -1,-6 m 115,19 v 2 l 1,-1 -1,1 h 2 l 2,1 h -3 v 1 l -2,-1 v 4 l -3,1 2,9 -2,-6 -2,1 2,3 -1,2 v -4 l -2,-2 -1,2 1,2 -2,3 -2,-1 -1,2 6,4 1,-1 v 3 l -5,-4 v 2 l -2,-3 -3,5 v 2 h 2 l -1,1 2,-1 -1,2 1,7 m -69,-37 -2,1 -1,3 h 1 v 4 l -3,-3 -2,2 -2,-2 h -3 l -2,3 -7,-3 -4,8 2,4 -1,2 m 77,5 v -4 l -2,-4 1,-2 -3,-2 v -3 l 2,-4 -1,-5 -4,3 -1,-1 -5,4 -1,-2 -2,2 -2,-2 -1,4 1,-3 -6,-2 v 4 l 2,1 m -69,4 v 4 m 139,-2 1,2 -4,3 6,1 v 3 l -3,-2 h -5 l -1,2 -1,-1 v 4 l -2,1 2,2 -2,2 3,3 2,3 -1,2 3,2 -3,2 h 1 l -2,2 3,1 2,-1 2,1 1,-2 3,4 4,-3 1,2 h 4 l 1,1 -1,4 3,3 3,-2 1,1 2,-2 2,2 1,-4 h 3 l 3,13 m -187,-40 -9,-8 -3,1 m 158,24 h 1 -1 m 0,3 3,-1 -3,1 m -12,17 h 2 l 8,-5 8,-1 -1,-2 -3,1 -1,-5 h -4 l -3,3 2,-4 4,1 3,-2 -2,-1 v -1 1 m 1,-1 1,1 v -2 l -1,1 m 1,-10 -1,3 -4,-3 -3,3 3,3 -3,2 1,2 1,-1 1,2 v 1 l 3,-2 m -25,51 -3,4 v 2 m -39,112 -2,-3 -5,-5 -1,-11 1,-4 -2,-3 v -5 l 2,-6 -1,-1 -4,1 -2,-3 h 3 l -1,-2 5,-4 3,-6 -4,-6 1,-2 -6,-9 h -1 l 1,3 -1,1 -4,-2 1,-3 v -1 -3 l -2,-1 2,-4 -1,-6 -3,-5 -8,3 -10,1 3,-3 1,-3 -7,-13 -1,-1 m 26,36 -2,2 -2,-1 -5,1 -3,2 -5,-1 -2,4 h -2 l -1,5 h -3 v 3 h -2 l -2,4 h -4 l -1,-2 v -1 l -2,1 2,-2 1,-3 -2,-3 3,-8 -5,-4 3,-1 3,1 1,-5 -10,-2 -3,1 -1,-1 1,-3 -3,-2 h -1 v 3 l -3,2 -6,-5 3,-3 v -7 m -34,45 h 1 -1 m 93,10 -2,-3 -5,-2 v -1 l -2,-2 v -4 l -2,1 h 1 -4 l -7,-5 -2,2 1,2 h -2 v 4 l -8,4 v 2 l -3,5 -5,-9 -1,9 -3,-4 v 2 l -2,-1 -1,2 -3,-1 -3,-6 -5,1 -5,-4 h -5 l -3,-1 -4,2 -2,-1 v -4 l -4,-7 m 100,81 -6,-2 -3,-2 -3,1 -3,-1 -2,4 h -6 l -1,4 -2,2 -6,-3 -9,6 -6,1 -2,-2 -5,4 -8,-1 3,-7 -2,-4 1,-3 -1,-4 -3,-3 -1,-5 -2,-1 -1,-13 -2,3 -3,-2 -2,1 h -2 l -1,-4 3,-1 v -2 l -4,-3 -3,1 v -2 l -7,-2 -2,-5 v -3 l -4,-1 -1,-4 -4,-1 -2,-8 -6,-5 v -3 l -5,-5 m 170,60 -4,-5 -5,-2 1,-3 h -2 l -2,-3 -2,1 m -25,57 v -5 l 2,-4 h -2 l 2,-3 -4,-8 -2,-5 h -5 m -71,6 -10,1 h -7 l -3,4 -2,-1 v 4 m 38,39 -2,-2 2,-3 -2,-1 -2,-7 -2,-1 v -3 l -5,-3 -4,1 2,-3 -2,-2 1,-5 h -5 l -1,5 -3,-2 -1,-2 -4,1 -4,-6 -5,1 -2,-3 m -39,97 10,-1 3,-4 2,1 6,-1 5,-5 -1,3 1,2 3,-3 6,1 1,-2 1,-5 -7,-3 1,-2 h -2 v -3 l 3,-8 7,-2 1,-4 3,-5 -1,-1 -1,-6 v -2 l -2,-1 -4,4 h -5 l -1,4 h -7 l 1,-5 h 2 v -2 l -4,1 1,-13 -1,-2 v 3 l -7,5 v 1 l -5,1 H 50 M 288,187 h -2 v 1 l -5,12 -3,1 v -3 l -2,-1 -2,-6 -6,-3 -1,-2 2,-3 -4,-11 1,-7 -4,-1 -3,1 -1,-2 h -1 m 19,34 -4,1 -8,5 -2,3 m 6,81 -3,-2 v -1 l -7,-2 m 4,17 -12,-2 m -44,22 -6,-1 -6,4 h -4 l -2,3 v 4 l -2,1 v -2 l -3,3 1,3 m 55,5 -4,3 3,2 -1,2 -2,4 1,1 -1,4 m -12,-17 -1,2 2,5 -1,2 -11,2 -2,-1 -1,2 -4,8 h -2 l -1,6 v 1 l 1,2 h 1 l 3,2 h 3 m -8,-5 -1,-1 -8,5"
       id="path7"
       style="stroke-width:0;stroke-dasharray:none" />
    <path
       fill="#eeeeee"
       d="m 230,-1 3,3 -1,3 2,2 8,3 8,6 -3,3 7,4 v 1 l -10,11 -12,1 -10,-4 -4,4 -6,-3 -13,-2 -1,-5 -6,-2 -5,4 4,-1 1,9 2,6 12,5 h 7 l 6,4 7,-2 3,2 4,-1 h 6 l 9,12 -5,3 -6,2 v 5 l 1,2 2,-6 4,2 h 9 l 3,-3 h 2 l 16,6 v 1 h -2 l 1,2 9,5 4,1 3,2 3,-2 2,-4 -2,-4 -4,-4 -5,-1 -3,-11 -1,-1 -3,-8 -12,-16 -2,-9 -5,-3 v -4 l -2,-1 1,-4 -6,-11 -3,-2 h -8 v 1 h -3 l -1,-1 z m -79,71 1,1 v 7 l 2,6 2,2 -1,1 5,4 1,-5 -4,-4 -2,-1 -2,-11 -2,-1 z m 153,-40 -1,2 7,4 -2,3 5,3 -2,3 h -5 l 8,5 -4,7 h -4 l 3,3 5,2 10,9 -3,2 3,7 6,1 3,5 1,-1 v -5 l -4,-4 h -3 l 3,-6 -3,-6 1,-3 -6,-3 -1,-4 2,-3 -5,-2 2,-3 -2,-3 v -4 l -4,-2 -1,-6 -5,-4 v -6 l -4,-1 3,-3 -3,-3 1,-4 -3,-7 -5,-4 3,6 -1,3 4,4 -2,3 2,2 -3,3 6,4 v 6 z m 22,63 -3,6 3,4 -1,2 5,3 2,-1 1,-10 z m -139,72 -9,10 -5,-1 -9,-6 8,7 h 5 l 2,4 7,-2 -3,-2 3,-6 h 2 l 4,2 1,-2 z m -68,-39 4,2 4,-2 5,5 3,-2 -1,-2 h -4 l -3,-3 -4,1 -14,-4 v 1 l 5,4 z m 49,223 h -4 v 2 l 4,-2 v 3 l -3,1 1,4 4,-6 z m 17,-53 -1,7 h 2 l -1,-3 4,3 -2,-1 1,-2 -3,-1 1,-2 2,2 z m -67,126 -2,2 2,-1 1,2 z m -1,1 h 2 v 1 z m 5,-10 -1,-1 1,4 1,-2 v 2 l 2,-1 -2,-1 v -3 l -3,-1 3,2 v 3 z m 24,-5 -1,-2 h -2 l -1,2 v -2 l -2,3 h -1 l -2,2 5,-2 2,-3 v 2 l 1,-1 3,3 -1,-3 v 2 z"
       id="path8"
       style="stroke-width:0;stroke-dasharray:none" />
  </g>
  <g
     id="g9">
    <rect
       fill="white"
       opacity="0.75"
       x="234"
       y="530"
       width="208"
       height="36"
       id="rect8" />
    <rect
       fill="black"
       x="238"
       y="534"
       width="200"
       height="8"
       id="rect9" />
    <text
       fill="black"
       text-anchor="middle"
       font-size="24"
       font-family="sans-serif"
       x="338"
       y="562"
       id="text9">50km</text>
  </g>
  <metadata
     id="metadata9">
    <rdf:RDF>
      <cc:Work
         rdf:about="">
        <dc:title>千葉県行政区画地図 (2013年1月1日)</dc:title>
      </cc:Work>
    </rdf:RDF>
  </metadata>
</svg>
