<?xml version="1.0" encoding="UTF-8" standalone="no"?>
<svg
   width="628"
   height="360"
   version="1.1"
   id="svg3023"
   inkscape:version="1.4 (86a8ad7, 2024-10-11)"
   sodipodi:docname="包括自治体区画図_11000_nocolor.svg"
   xmlns:inkscape="http://www.inkscape.org/namespaces/inkscape"
   xmlns:sodipodi="http://sodipodi.sourceforge.net/DTD/sodipodi-0.dtd"
   xmlns="http://www.w3.org/2000/svg"
   xmlns:svg="http://www.w3.org/2000/svg"
   xmlns:rdf="http://www.w3.org/1999/02/22-rdf-syntax-ns#"
   xmlns:cc="http://creativecommons.org/ns#"
   xmlns:dc="http://purl.org/dc/elements/1.1/">
  <metadata
     id="metadata3059">
    <rdf:RDF>
      <cc:Work
         rdf:about="">
        <dc:format>image/svg+xml</dc:format>
        <dc:type
           rdf:resource="http://purl.org/dc/dcmitype/StillImage" />
        <dc:title>埼玉県行政区画地図 (2010年3月23日)</dc:title>
      </cc:Work>
    </rdf:RDF>
  </metadata>
  <defs
     id="defs3057" />
  <sodipodi:namedview
     pagecolor="#ffffff"
     bordercolor="#666666"
     borderopacity="1"
     objecttolerance="10"
     gridtolerance="10"
     guidetolerance="10"
     inkscape:pageopacity="0"
     inkscape:pageshadow="2"
     inkscape:window-width="1920"
     inkscape:window-height="1094"
     id="namedview3055"
     showgrid="false"
     inkscape:zoom="1.8541911"
     inkscape:cx="358.10764"
     inkscape:cy="157.48107"
     inkscape:window-x="-11"
     inkscape:window-y="-11"
     inkscape:window-maximized="1"
     inkscape:current-layer="g3031"
     inkscape:showpageshadow="2"
     inkscape:pagecheckerboard="0"
     inkscape:deskcolor="#d1d1d1" />
  <title
     id="title3025">埼玉県行政区画地図 (2010年3月23日)</title>
  <desc
     id="desc3027">Author: Lincun</desc>
  <rect
     fill="#eeeeee"
     x="0"
     y="0"
     width="628"
     height="360"
     id="rect3029" />
  <g
     stroke="black"
     stroke-width="0.2"
     stroke-linejoin="round"
     id="g3031">
    <path
       fill="#cccccc"
       d="M616-1l2 1-2 4-4 2-2-2h-3l3-3-1-2h-25l-6 10 3 11-5 7-2 10-3 5-18 8-12 5-15 10-2 1v-2l-3-2v-2h-2v1h-5v5l-4-1v-2h-3l-2 3v2v1l3 4-2 10 4 14 2 4 4 6 1 5 7 8v4l1 11 2 2h7l11 4 2-1v-4l2-1v-1l1-4 4-4 7 7 5 16 5 6 11 12 8 6 9 11 5 15 14 9 5 1 6 1v1v-212zM629 218l-2 3 2 3zM609-1l1 2-3 3h3l2 2 4-2 2-4-2-1zM371-1l1 2 3 1-1 1 2 2v3l2 2 2-2 2 2 1 3 6-1 3 3 3 4h-3l-2 1 5 4h2l-1-3 2-1 3 3 4-2 2 1 4-2 1-3 5 2 6-4 3 2 2 2 1-2 4 4 2-3 3 1-1 3 4 4 14-1h10l4-3 8 1 2 5 3-2v1l-6 7 6 8-1 3 2-3 2 2 1-1 2 3v2h4l-2 2v4l3-1 1 2 2 4-3 4 5-1 1 4 2 1 3-2 1 3v-2l2-3h3v2l4 1v-5h5v-1h2v2l3 2v2l2-1 15-10 12-5 18-8 3-5 2-10 5-7-3-11 6-10zM-1 183h1l5 13 12 4 2-5 5-1 4-4 1-3 3-3 3-4 3-11 9-2 4 1 5 5 3-2 16-3v-3l1-1 1-3 5-5 2-6 6-2 5-6 9-3 6-4h6l3-2 7 4 6-4 7-7v-3l2-9 2-1 3 1 3 5 5 1 4-6h3l3-3-1-2 3 1 3-2 2 2 2-2 1 3 3 2 4-1 1-12 3-3h7v-2l1-2-3-4-1-11 4-2v-7l8-10 8-15 8-13-2-1 5-5 6-9 3 3h14l3 2 1 1 13 7h4l3 2v2l6-1 6 6 4 2 5-1 6 2v-5l3 1 3 1 10 3 3-1 2 6 6 3 4-1v-4v-1l6-2 3-7h2l2 2 2-1 5 4 4 1 3 4 4 6 9 3 4 4 2 4 4 1 8 8 10 4 15-2h1l17 1 29-12 6 3 5 5 7 7 2-6 11-1v-9l5-2 2 2-2 2 2 1 3-4-2-4-1-2-3 1v-4l2-2h-4v-2l-2-3-1 1-2-2-2 3 1-3-6-8 6-7v-1l-3 2-2-5-8-1-4 3h-10l-14 1-4-4 1-3-3-1-2 3-4-4-1 2-2-2-3-2-6 4-5-2-1 3-4 2-2-1-4 2-3-3-2 1 1 3h-2l-5-4 2-1h3l-3-4-3-3-6 1-1-3-2-2-2 2-2-2v-3l-2-2 1-1-3-1-1-2h-372zM629 223l-1-3 1-2v-7l-1-2h-5h-4l-8-4-7-6-5-15-9-11-8-6-11-12-5-6-5-16-7-7-4 4-1 4v1l3 12 4 6 9 11 4 4 1 3-2 6 2 12-2 4 7 8-1 7 4 2 1 5 7 14 7 5 6 11 8 12 4 16 1 3-5 12-1 8v4l2 3-2 15 3 7v3l-6 3-1 3 5 11h1l5 6-2 8 1 2h17zM612 361l-1-2 2-8-5-6h-1l-5-11 1-3 6-3v-3l-3-1-6 2-2-4 2-3-1-3-8 2-1 2-5-3-4-3-6 5-3-3v-2l2-6-2-3v3l-3 1h-6l-2 2-9-1-4-6h-2l-4 3h-2l-3 2 5 7v2l-3 5h-4v2l-4 2v-5l-2-1-5 2-2-3h-7l-4-4h-1l-3-2-6 2-10-1-6 1h-3l-1 5-7 6v1l-1 7-3 1-1-3-8 1v-2l3-1-4-2-1-1h-3l-3 5-7 3 1 2-4 1-4 2v2l-4 1-1-1 1-12-15 6 3-4 5-2 5-3v-5l-3-3 4-3 1-3-3-3-9 11h-5v2l-7 2-1 2-1-1-3 1-3-1-5 3-6 2-2 2-8 2-2-2-1 2-7-1-1 1-8-2-3 3-3 1v-2l-4 1-2-2-1-1 1-1 1-2-2-3-4 1 2-1-3-4 1-4-10-1-2-1-7 2-1-1-3-2-5-11 1-2-1-4-5 1-1-7h-4l-2-2-3 1-2-3-2 1-8 2-4-1-5 1-2-3-4 3-9-7-3 1-2 3-7-1-12-5h-1l-2-4-6-4-23-2-5-2-4-3h-4v1l-3 1-10-5-6-6-9-6-4 1-5 8-8 2-3-3-6 4-11 7v2l-1 3v3l2 3v4l3 4 5 5 3-1v15l3 9 5 6-1 8 4 9 4 3h3l3 6v1l1 1 4 7zM171 361l-4-7-1-1v-1l-3-6h-3l-4-3-4-9 1-8-5-6-3-9v-15l-3 1-5-5-3-4v-4l-2-3-6 2-3 2-7-3-7 4-2 4-1-1-3-3-4-1-4-6-4-1-1 1-2-4-4-2-4 2-4 1-3-2h-1l-5 2-3-5-8-3-1-11-6-4h-7l-5-2-2 1-6-3-2 1-3-3-10-1-6 7h-1l-1 2-3 2v1l-4 10v93zM-1 268l4-10v-1l3-2 1-2h1l6-7 10 1 1-4-1-1 2-1 3-5 1-8-4-3-2-8-3-1-2-3-2-1-1-4 1-8-12-4-5-13h-1z"
       id="path3033" />
    <path
       fill="#dcb6f2"
       d="M493 297l3-4 4 2-1-4 2-1-2-1 2-3-2-2 7 2 3-1 1-3h-1l2-3 2-2 3 3 2-1-1-2 4-1-1-3 2-2-4-4 3-1 2 2 5-1 2 5 2-2-1-1 1-1-2-3 4-1-2-3 1 1 2 1 3 2-4-8 4-1v-3l1-3v-4h-3l-2-4 2-3-2-3h2l4-7-3-1-1-1h1l-3-6-4-1-1-3-8 4 1-4 2-2-4 1-3-4h1l1-1h-2v-2l2 2 3-1 3-8-4-6-6-2-4-2-2-3-2 1v2l2 4-1 3-3 6 3 2-14-1v2l-6 2v3l2-1v2l-4 1-2 6-4-2-6 2-4-8-2-1-6 4h-7l6 10-1 5-5-6-4 2-2-1-5 3-2 6-2-4h-3v2l-2-1 2 3-1 2h-1l-1 3 2 2-1 4 3 3-1 7 3 4-4 1 1 3 4 2v3l9 2v1l1 4 3 2 7 9 4 1v6l1 1 2-1h2l1 3 3-3 3 3 5-2 2 2v-2l4-2 3 4zM433 230l-2 2 2 1 2-1z"
       id="path3035" />
    <path
       fill="#f6bad3"
       d="M439 341l4-2 4-1-1-2 7-3 3-5h3l1 1 4 2-3 1v2l8-1 1 3 3-1 1-7v-1l7-6 1-5h3l6-1 10 1 6-2 3 2h1l4 4h7l2 3 5-2 2 1v5l4-2v-2h4l3-5v-2l-5-7 3-2h2l4-3h2l4 6 9 1 2-2h6l3-1v-3l2 3-2 6v2l3 3 6-5 4 3 5 3 1-2 8-2 1 3-2 3 2 4 6-2 3 1-3-7 2-15-2-3v-4l1-8 5-12-1-3-4-16-8-12-6-11-7-5-2 1-7-2 2 3 3 1-2 4v7l2-1 1 3h3l-6 4-2-1h-4l-2-4-8-2v-4l7-5-4-5-4-1 1-3v-5l2 1 6-8 1 1 3-1 2-2-4-2 1-7-7-8 2-4-2-12 2-6-1-3-4-4-1 5-2 1-1-2-11 7 3 5v3l-2 1 1 4-4-2-2 2h-5l-1 3h-7v2l-9-2-1 1-3-3-2-1-3 6 6 2 4 6-3 8-3 1-2-2v2h2l-1 1h-1l3 4 4-1-2 2-1 4 8-4 1 3 4 1 3 6h-1l1 1 3 1-4 7h-2l2 3-2 3 2 4h3v4l-1 3v3l-4 1 4 8-3-2-2-1-1-1 2 3-4 1 2 3-1 1 1 1-2 2-2-5-5 1-2-2-3 1 4 4-2 2 1 3-4 1 1 2-2 1-3-3-2 2-2 3h1l-1 3-3 1-7-2 2 2-2 3 2 1-2 1 1 4-4-2-3 4h-2l-3-4-4 2v2l-2-2-5 2-3-3-3 3-1-3h-2l-2 1-1-1v-6l-4-1-7-9-3-2-1-4v-1l-9-2v-3l-4-2-1-3 4-1-3-4 1-7-3-3 1-4-2-2 1-3h1l1-2-2-3-2 1-2-1 2-2 2 2 2 1v-2h3l2 4 2-6 5-3 2 1 4-2 5 6 1-5-6-10h7l6-4 2 1 4 8 6-2 4 2 2-6 4-1v-2l-2 1v-3l6-2v-2l14 1-3-2 3-6 1-3-2-4-2-3-6 3-5-5-2-3-6 1v-13l-6-1-6 3-11-5 2-2-1-4 4-2 3 3 2-2 1 2 6 2 7 4v-2l4-2-2-3 2-2 6 3v2l3-3 3 2 3-2-3-8 8 2 2-4 6 6 4-1 2 5 2-1 4 4 1-3h2l1-2-1-3 1 1-2-1 4-1 3 2 1-1 1 1-2 1 4 4h3l2 3 2-2 1-9h2l1-3-1 2-1-2h3l-4-6-3-12-2 1v4l-2 1-11-4h-7l-2-2-1-11v-4l-7-8-1-5-4-6-2-4-4-14 2-10-3-4v-1l-1-3-3 2-2-1-1-4-5 1-2-1 2-2-2-2-5 2v9l-11 1-2 6-7-7-5-5-6-3-29 12-17-1h-1l-15 2-10-4-8-8-4-1-2-4-4-4-9-3-4-6-3-4-4-1-5-4-2 1-2-2h-2l-3 7-6 2v1v4l-4 1-6-3-2-6-3 1-10-3-3-1-3-1v5l-6-2-5 1-4-2-6-6-6 1v-2l-3-2h-4l-13-7-1-1-1 6-3 1 2 3-5 6 2 1v3l1 2 5 1-3 2h-3l-11 9-1-1-4 4 1 2-2 4 2 1v2l-3 2-2-4-6-2 2 5-6 4h-2l-3 3h-2l-1-1-1 3-2 1-1 4 1 1-1 2 1 2-1 4h-4l-1 2 2 6 3 1-2 3h-3l-3 6h-1l-1 4 8 5 5-2 3-1-1-4 3-4 4-1 3-4 3 1 6-3 6 1 3-3 2-1-2-7 6-8-2-3 2-2 4-7h-3v-2h2l3-5 7-2 5 1v2l2-1 1-1 1 8 2-2 3 1v4v3l-8 4-1 2 14 10 3 1 1-1 3 2-2 4h-4l-7 6-11 2-2 2 5 1 5-2 7 2 1 9 4 1 15-1v2l3-1 6-1 2 1-1 3-6 4h7l4-3v4l2-2 6-2 6 3-1 3 5 6 3-5 3 2-1 3h2l1 2 3-1 1-9 7 2h8l4 3 2-4-5 12 1 11 4 9-2 1 2 5-6-1-3 4-5-3-2 2-12-2 1 8 3 2-1 7 3 3 3 3 5 1 5 3v2l5 5h-2l1 2 2 1-6 3h-5l-5 5 1 3 1-1 1 3 4 3-3 2 2 3-6 4 3 3-3 1v3l-9-4-2 1-1 4 2 3h-3v2h-2l-2 2h-3v5l-7 3-9 2-3-1 2-6-6-8h-4l-1 2-2-1v-1l-6-3-1-6-3-4h-3l-5-6v-1l-5-3-1-3-11-2-1 5-7 10-7 1-3 3-8 2-12 5-4-5 2-10-5-8-1-4 3-11h-1l1-1v-3l4-7h3h2l3 6 5-2 16 4 3-1 5 4v-4l1-1-6-7-6-11-14-5v-3l-3-2v-3l-3-6-4-2-4 2-5-7-1 2-6 2-2-1-5 3-2-2v-7l-5-1-5 3-8-6-2-3h-5v-2l2-6-8 2-3-7-5-3v-2v-2l-3-5-3-1-2 1-2 9v3l-7 7-6 4 1 5 5 5 3 5 12 6-1 4-1 2 7 4 1 2 9 4h3l8 7 6-2 1-2h3l3 2 1 1-2 2 1 4-5 5 5 5-4 10-8 5-7 1-2-8-8 2-6-4-4 2-2-1-2 2-4-1-3 6-4 2-7-3-3 3-11-6-2 2h-7l-4-4-5-1-10-11-3-2v-11l1-7-6-4-16 3-3 2-5-5-4-1-9 2-3 11-3 4-3 3-1 3-4 4-5 1-2 5-1 8 1 4 2 1 2 3 3 1 2 8 4 3-1 8-3 5-2 1 1 1-1 4 3 3 2-1 6 3 2-1 5 2h7l6 4 1 11 8 3 3 5 5-2h1l3 2 4-1 4-2 4 2 2 4 1-1 4 1 4 6 4 1 3 3 1 1 2-4 7-4 7 3 3-2 6-2v-3l1-3v-2l11-7 6-4 3 3 8-2 5-8 4-1 9 6 6 6 10 5 3-1v-1h4l4 3 5 2 23 2 6 4 2 4h1l12 5 7 1 2-3 3-1 9 7 4-3 2 3 5-1 4 1 8-2 2-1 2 3 3-1 2 2h4l1 7 5-1 1 4-1 2 5 11 3 2 1 1 7-2 2 1 10 1-1 4 3 4-2 1 4-1 2 3-1 2-1 1 1 1 2 2 4-1v2l3-1 3-3 8 2 1-1 7 1 1-2 2 2 8-2 2-2 6-2 5-3 3 1 3-1 1 1 1-2 7-2v-2h5l9-11 3 3-1 3-4 3 3 3v5l-5 3-5 2-3 4 15-6-1 12 1 1 4-1zM439 299l-1 4-5-1-4 1-2-3-14 6-11-15-1 3-1-2 5-3 3-5 5 1 4-2-1 5 2-2 4 2 3-3h2l-1 4 1-1 3 1-1 2h2l1 2h1l1 2h2v3h3zM429 216l2-1 3 6-5 2v-1h-5v2l-7-3-6-4-1 2h-3l-1-2-2 2-4-1v-1l-1-1h-4l-3-1 1-1-2-3 1-2-3-1-1-4-5-1-2-2 1-2h-2l-2-5-2-1h-3l-1-6 6 2h6l4-1 2-4-4-1v-2l-5 3-1-4-8-10h-2l1-3-2-8 2-1h-3l2-1-1-5 3-4 12-6v-2h2l3 2 8 12 5 1v3l4 4v3l2 5 5 4-3 6 1 3 2 1-2 6 1 4h3l3 5-1 2 1 3 2 2 2-1 1 1-2 1 4 2v1l-2 2zM482 210l-4-1-6-4-4-7-4-3v-5l-8-4 3-12 8 4 5 8 6 1 2 5 4 4-1 11zM236 69l1 1h-1z"
       id="path3037"
       style="fill:#f6bad3;fill-opacity:1" />
    <path
       fill="#ece3b4"
       d="M429 303l4-1 5 1 1-4v-1h-3v-3h-2l-1-2h-1l-1-2h-2l1-2-3-1-1 1 1-4h-2l-3 3-4-2-2 2 1-5-4 2-5-1-3 5-5 3 1 2 1-3 11 15 14-6zM315 248v-5h3l2-2h2v-2h3l-2-3 1-4 2-1 9 4v-3l3-1-3-3 6-4-2-3 3-2-4-3-1-3-1 1-1-3 5-5h5l6-3-2-1-1-2h2l-5-5v-2l-5-3-5-1-3-3-3-3 1-7-3-2-1-8 12 2 2-2 5 3 3-4 6 1-2-5 2-1-4-9-1-11 5-12-2 4-4-3h-8l-7-2-1 9-3 1-1-2h-2l1-3-3-2-3 5-5-6 1-3-6-3-6 2-2 2v-4l-4 3h-7l6-4 1-3-2-1-6 1-3 1v-2l-15 1-4-1-1-9-7-2-5 2-5-1 2-2 11-2 7-6h4l2-4-3-2-1 1-3-1-14-10 1-2 8-4v-3v-4l-3-1-2 2-1-8-1 1-2 1v-2l-5-1-7 2-3 5h-2v2h3l-4 7-2 2 2 3-6 8 2 7-2 1-3 3-6-1-6 3-3-1-3 4-4 1-3 4 1 4-3 1-5 2-8-5 1-4h1l3-6h3l2-3-3-1-2-6 1-2h4l1-4-1-2 1-2-1-1 1-4 2-1 1-3 1 1h2l3-3h2l6-4-2-5 6 2 2 4 3-2v-2l-2-1 2-4-1-2 4-4 1 1 11-9h3l3-2-5-1-1-2v-3l-2-1 5-6-2-3 3-1 1-6-3-2h-14l-3-3-6 9-5 5 2 1-8 13-8 15-8 10v7l-4 2 1 11 3 4-1 2v2h-7l-3 3-1 12-4 1-3-2-1-3-2 2-2-2-3 2-3-1 1 2-3 3h-3l-4 6-5-1v2v2l5 3 3 7 8-2-2 6v2h5l2 3 8 6 5-3 5 1v7l2 2 5-3 2 1 6-2 1-2 5 7 4-2 4 2 3 6v3l3 2v3l14 5 2-3-1-7 2-2-1-5 1-4-1-14-2-3 3-3 1 1 4 2 3-1v3l5 7 3 3h4l14 6 2 4 2-1 2 2-9 3-11 10-5 1-1 2 2 7v5l-2 4-5 1-1 1v4l-5-4-3 1-16-4-5 2-3-6h-2h-3l-4 7v3l-1 1h1l-3 11 1 4 5 8-2 10 4 5 12-5 8-2 3-3 7-1 7-10 1-5 11 2 1 3 5 3v1l5 6h3l3 4 1 6 6 3v1l2 1 1-2h4l6 8-2 6 3 1 9-2zM580 249l6-4h-3l-1-3-2 1v-7l2-4-3-1-2-3 7 2 2-1-7-14-1-5-2 2-3 1-1-1-6 8-2-1v5l-1 3 4 1 4 5-7 5v4l8 2 2 4h4zM429 223l5-2-3-6-2 1-6-4 2-2v-1l-4-2 2-1-1-1-2 1-2-2-1-3 1-2-3-5h-3l-1-4 2-6-2-1-1-3 3-6-5-4-2-5v-3l-4-4v-3l-5-1-8-12-3-2h-2v2l-12 6-3 4 1 5-2 1h3l-2 1 2 8-1 3h2l8 10 1 4 5-3v2l4 1-2 4-4 1h-6l-6-2 1 6h3l2 1 2 5h2l-1 2 2 2 5 1 1 4 3 1-1 2 2 3-1 1 3 1h4l1 1v1l4 1 2-2 1 2h3l1-2 6 4 7 3v-2h5zM482 210l1-3 1-11-4-4-2-5-6-1-5-8-8-4-3 12 8 4v5l4 3 4 7 6 4zM515 194l3-6 2 1 3 3 1-1 9 2v-2h7l1-3h5l2-2 4 2-1-4 2-1v-3l-3-5 11-7 1 2 2-1 1-5-9-11h-3l1 2 1-2-1 3h-2l-1 9-2 2-2-3h-3l-4-4 2-1-1-1-1 1-3-2-4 1 2 1-1-1 1 3-1 2h-2l-1 3-4-4-2 1-2-5-4 1-6-6-2 4-8-2 3 8-3 2-3-2-3 3v-2l-6-3-2 2 2 3-4 2v2l-7-4-6-2-1-2-2 2-3-3-4 2 1 4-2 2 11 5 6-3 6 1v13l6-1 2 3 5 5 6-3 2 3v-2l2-1 2 3zM75 168l6 4-1 7v11l3 2 10 11 5 1 4 4h7l2-2 11 6 3-3 7 3 4-2 3-6 4 1 2-2 2 1 4-2 6 4 8-2 2 8 7-1 8-5 4-10-5-5 5-5-1-4 2-2-1-1-3-2h-3l-1 2-6 2-8-7h-3l-9-4-1-2-7-4 1-2 1-4-12-6-3-5-5-5-1-5-7-4-3 2h-6l-6 4-9 3-5 6-6 2-2 6-5 5-1 3-1 1zM236 69v1h1z"
       id="path3039" />
    <path
       fill="#b6f2dc"
       d="M256 188v-5l-2-7 1-2 5-1 11-10 9-3-2-2-2 1-2-4-14-6h-4l-3-3-5-7v-3l-3 1-4-2-1-1-3 3 2 3 1 14-1 4 1 5-2 2 1 7-2 3 6 11 6 7 5-1z"
       id="path3041" />
    <path
       fill="none"
       stroke-linecap="round"
       d="M311 123l6-4v-13l-2-1 3-4-2-4-3 1-2-3-2 1-3-3v-1l3-4 5-3-2-2 5-2 3 3 4-2-1-2 2-2 2 2-2-6 3-8-1-4 2-2-1-7 1-6-4-4M283 40l-1 4h2l1 4-3 5-4-1-1 1h-2l-1-1 2-1-3-1v-2v2h-3l-1 4-2-1-2 1-6 4-1 5M383 70l-2 1-9-2-1 1v3l-2 2 3 1-1 2 1 7 1 1h5v4l2 1-3 2v8l-5-1v6l2 2 4 5-3 4h3l-3 4 2 2 4-4h4l5 3 1-2 8 7 4-1-2 5 7 5 4-9-1-1-2-1 1-1-2-1 6-3 1-6 11 5 1-3 2-3-5-4-1-3h-4l-1-9-8-2v-5l-5-6v-2h5v-2l2-2-3-6M466 69l-4 3v4l5 9-2 3-1 5-9-4-1 9h-7v5h-1v1l2 2h-18l-4-2-2-3-1 5M371 96l1 3v-3h1h-2M512 101l-9 6 1 7h-4l-5 3-2 2v3l3 2-10 4-2-1v4l-3 6h-2l-3 2 1 3-9-2-4-3-2 1v3l-4 5-4-3-2 4-1-3-2 3h-8l2 5 1 4h-4l6 10v3l2 2 7 2 3-3 5-1M524 124h-3l-1 6-3-2-3 3-3-1-3 5 1 3-2-1v2l1 4h2h3l2 2 1 3-2 2-1 3M377 123l3 4-4 1 2 9-1 1 7 2M372 148v-1l-1-1-5-1h-2l3-9v-3h-4l-6-6-3 1M426 119v3l6 7 1-1 1 1h4l-1 5-4 1-2 6 6 1 4 5M446 166l-3 3v3l-4 1 2 5v2l-4 2 2 3-2 3-5-5-9 1-4 5-5 1 1 4M443 169l-3-4-6-1-10-8-2 1 2 3-3 2 1 2 5 6h-4l1 2-2-3-3 3-3-2h-8M455 173l4 1M456 186v1l-3-2h-6l1 3h-2l2 5-1 3 2 3h-5v-1v-2l-2-2-1 3-10-1-1 4 2 5-4 5 1 6M376 193l-12 7-6 2-4-1-3 2M486 215l-4-5M395 216l-9 7-7 2-1-4 4-1 1-3-4-1 3-1-9 2-1 2 3 9-6 7 2 3-4 1-12 6-2-5-2 1-1 3 1-3h1l2 6-2 1h5l1 5 2 4 2-1 5-3 1 2 2 1v1l7 4v4l5-2 3 3 6-5-3 10 4-4 2 7-3 5 3 4v3h2l3 5 1 1M372 219l-2-2-2 1-3 5-4 1-1-4-8 1-2 6-3-1-2 2-8 8v2l3 1 5-3 6 5M563 227l-3-4-10-6v7l1 2 2 1-2 2h-5l-1 2-4-3v-2l-4 2M433 230l1-3-5-4M430 228l2 3-2-3M337 236l-6 5h-3l-3-2M299 253l2 8-1 3 2 1-3 4 3 1v2l3-1 1 2 9-3h4l1-3 5-3 3 3 4-1h4l3 1 5-4 2 4-3 3 4 1 1 2 8-5-1-4 7-6v-2M436 261h-1l-2 3 2 1 1 2v5l-15 4v3l-4 2 11-5v3l-2 1-1 5M435 265h-2l-1 2-7-2-2-3 1-3-1-1-4 2v5l-3 1-6 8 2 1-2-1-5 4-10 4 3-1 2 3 6-3 1 2-4 3 2 3M212 236l1 3 4 2v7l3 4 1 4-2 4-3 4-1 5-4 5M580 249l-4 4 6 4v14v7l17-6 2 2 10-1M582 271l-4-1-7 2 1 3-8 5-2 1-7-4-4 1-4-4-5-3-4-6M348 273l-4 5-3 1 2 10h4v-4l9-2v2l2 3h-1l1 3 7-1 6 14 2-2 4 2 1-2 4 1-2-3 6-4-1-5 1 4 7-7 1 5 3-1 1 3 2-1-1-3M582 278v2l3 16 4 4 7 1 1 3-2 4-5 4 1 6M582 280l-1-1h-5l1 3v11l-2 4h-3l1-1h-3v-3h-2l1 4 3 4-4 4h4M454 278l-1 1 2 4-3-3-2 8-3 1h3l2 3-1 1-3-1-2 2-7 4M500 295l17 4-2 4h-2l-2 2h-3l-1 1-3-1v-2h-2l-5-2-3-1-1-3M547 274l-4 2 1 3 5 4-2 2 4 4-1 2 2 2-1 1h2l2 3 1 2-10 5M341 279l-1-2-4 2 1 4-4 1 1 14h-4v4l-3-3h-3l-5 5M465 294l-5 3h-1v1h-1v-2l-1 2-2-2-3 1 1 3-3 1-2 5 1 2-1 2 1 1-1 4 3 4-1 4 2 1v3l3-4 1 4 3 1M450 301l-8 3-3-5M429 303v1l1 1 1-2 1 1 2 4-2 3M540 307l-5-7 1-6-2-3h1v-3l-5 1v2l-5-3-1 1 1 15 2 2 4 2 1-2 3 1 2 2M371 304l-1 2-7 3-10 3 3 4-2 8 1 2h4v3l-2 2h-5M485 316l-3-3-2-6-1 5-3-1v-3l-3 1v-9l-2-3M511 316v-2h-2l2-9M460 329l4-9 5-3v-6l4-2M229 54l-5-1-3 3-1-2-3-3-1-5-4 2-3-2v-2M256 82l1 4 3 6-3 10-11 8-5-2v3l-2-2h-4l-1 7-4 2 1 3-2 11 1 3 7 2M241 108l-3-4-9-3M189 113l-6 6-1 6-4 4-13 2M230 135l-5 1-6-2 1 4-2 2-2-3-9-2-4-4 1-1v-3l2-2-2-1v-3l-2-5M305 125v5h4l3 3-2 3-4 1v3l9 13-1 2h-3l-2 5 2 1-1 4-4 3v2l3 1 3-3-1 5 2 4 6 5v4l5-1 5 2 3-1M305 130v2l-2 3-7-5-9 10h-4l-1-2-3-1-5 1-1-3-2 1-1 2-5-2 1 3-2 5-4 2v3M321 135l6 6-4 8 3 4 2-3-1 1 2 2-1 1 1 2-1 3 2 1 2-2h2l-3 4-5 2v2M533 191l2-4 3-2-1-2-10-8h-3l-9-6v-3l-6-6 2-1v-2M518 188l-5-6 2-1 1-2-2-4-8-2-4-7 1-1M411 183l-5-3-8-1-8 5M309 171l-8 3-15-3-3 2-1 4h-3l-6 7h-4l-3 4-4-1-6 1M319 186l-7 4v4l-3 1-3-2-1 4 7 4 7 10 3 2 2 2h6l2-3h3v-1M250 210l-1-1-4-9 3-2M305 197l-4-2-1 4-5 2-1-1h-7l-3 5-4 1-4 1-5 6-1 4-3 1M322 213l-3 1 1 4h-2l-3 4-4 4-12-4-1 3-5 4-2 4 3 2-2 3"
       id="path3043" />
    <path
       fill="#eeeeee"
       d="M180 61l-1-2-1 1zM160 113l-3-1-1 4 3-2 5 1v-5l7 2 2-2-3-1v-3h-3l-1 2-3-1-2 2 2 3zM112 228l3 5-1-1 1-5-2 1-10-1zM189 231l1 2-3 4 4-4 3 3v3l2 1-1-1v-3l-4-3 2-2-3-1v-6l-4-4v4l2 1v4zM365 328h-10h3v2l2-1 2 1-5 4v1h2l3-3 1 2v-3l2 3v-3h1l1 3 2-8-3 2-1-2zM326 269h-2v2l2-1zM246 269h-6l7 1v2l2-2zM306 243h-2l2 1zM381 154h-1l1 2zM246 110l-1-3-1 4 2 1-1-1zM367 336l-5 1 2-1-1 2h5v2l2-3zM172 327l-2 2-2-1-1-7v7l4 1v2l-7-4-3 4-2-2-3 1-3-4-2 2-3-3h-3h3l2 4 3-1 2 3h5l-1 4-2 1v2l-2 2 2-2 1-2 2-1v-3l3 1 1-4 7 4v3v-2l2 1 1-7 1 2 2-2 2 2 1-2h3v3l2 2-1-5 1-1 2 3v-4l-2-6-3 1 1 2-1 1 1 2-3-1-3 1v-2l-1 3-1-2 1 3-2-2z"
       id="path3045" />
    <path
       style="fill:none;stroke:#f6bad3;stroke-width:0.8;stroke-linecap:butt;stroke-linejoin:miter;stroke-opacity:1;stroke-miterlimit:4;stroke-dasharray:none;fill-opacity:1"
       d="m 536.95921,308.96696 -1.95503,-1.95503 -3.01681,-1.02807 -1.01122,2.00559 -4.01119,-2.00559 -1.97188,-2.00559 -0.99437,-14.99981 0.99437,-0.99436 4.9887,2.99996 0.0337,-1.98874 4.95499,-1.01122 0.0337,3.01681 -1.02807,0.0169 2.00559,2.96626 -0.97752,5.99992 4.95499,7.01114 z"
       id="path3061"
       inkscape:connector-curvature="0" />
    <path
       style="fill:none;stroke:#000000;stroke-width:0.21815048;stroke-linecap:butt;stroke-linejoin:miter;stroke-miterlimit:4;stroke-opacity:1;stroke-dasharray:none"
       d="m 540.48942,306.9873 -3.38629,2.24025"
       id="path3831"
       inkscape:connector-curvature="0" />
    <path
       style="fill:#f6bad3;stroke:#000000;stroke-width:0.1;stroke-linecap:butt;stroke-linejoin:miter;stroke-opacity:1;stroke-miterlimit:4;stroke-dasharray:none;fill-opacity:1"
       d="m 506.95961,191.9348 0.0337,-1.95503 2.00559,-0.99437 1.98874,2.98311 4.02803,2.0393 2.9494,-6.05049 -4.95499,-5.98306 1.98874,-0.99437 0.99437,-1.98874 -1.98874,-3.97748 -8.05607,-2.03929 -3.96063,-6.97744 0.97752,-0.99437 -2.99996,-2.02244 -2.9494,2.96625 -0.0337,-1.97189 -5.98306,-2.9831 -2.0056,2.02244 1.97189,2.9494 -3.97748,2.05615 -0.0168,1.95504 -6.97744,-3.99433 -6.03363,-2.0056 -0.96066,-1.95503 -1.98874,1.97189 -3.03366,-3.01682 -3.96062,2.0393 0.96066,3.97748 -1.97189,2.00559 10.97177,4.9887 0.0674,0 5.94936,-2.98311 5.99992,1.01122 0,12.99421 5.98307,-1.01122 2.02245,2.99996 5.00555,4.9887 5.99992,-2.98311 z"
       id="path3833"
       inkscape:connector-curvature="0" />
    <path
       style="fill:#f6bad3;fill-opacity:1;stroke-width:0"
       d="m 116.26708,208.42304 -5.3493,-2.95975 -1.15729,1.08721 c -0.89409,0.83996 -1.89107,1.08721 -4.38381,1.08721 -3.04024,0 -3.3452,-0.12152 -5.28178,-2.10476 -1.534104,-1.57107 -2.646975,-2.1935 -4.388884,-2.45471 -2.118741,-0.31773 -2.796268,-0.86172 -7.357455,-5.9073 -2.763099,-3.05655 -5.723572,-5.9892 -6.578828,-6.517 l -1.555012,-0.95965 0.323348,-7.61234 c 0.177841,-4.18679 0.464413,-8.21907 0.636827,-8.96064 0.273814,-1.17769 -0.06474,-1.58714 -2.675612,-3.23591 -2.415159,-1.52517 -2.989627,-2.16628 -2.991877,-3.33891 -0.0015,-0.79822 0.213024,-1.58468 0.476789,-1.74769 0.263766,-0.16302 0.643578,-0.96609 0.844028,-1.78462 0.20045,-0.81852 1.493342,-2.64202 2.873095,-4.05222 1.632276,-1.66829 2.891764,-3.63233 3.605352,-5.62217 1.067312,-2.9762 1.178208,-3.08523 4.136857,-4.06729 2.500515,-0.82999 3.456542,-1.53094 5.386015,-3.94896 2.138678,-2.68019 2.727571,-3.06446 6.667591,-4.35076 2.376946,-0.77601 5.794806,-2.35431 7.595236,-3.50735 2.74375,-1.75715 3.734,-2.09643 6.11895,-2.09643 1.66832,0 3.46448,-0.36567 4.34183,-0.88394 1.44847,-0.85563 1.60275,-0.82547 4.81709,0.94163 3.02733,1.66428 3.35109,2.01561 3.66469,3.97675 0.24761,1.54848 1.05608,2.90905 2.88552,4.85606 1.39785,1.48767 3.28333,3.91926 4.18997,5.40354 1.49741,2.45144 2.19038,2.96608 7.56369,5.6173 l 5.91526,2.91861 -0.69149,2.20282 c -0.38032,1.21156 -0.8457,2.56949 -1.03417,3.01764 -0.24886,0.59171 0.55318,1.30732 2.92918,2.61353 1.79953,0.9893 3.56275,2.29436 3.91826,2.90013 0.83225,1.4181 9.05083,5.26688 11.24675,5.26688 1.31258,0 2.56102,0.78669 5.68388,3.58163 l 4.00184,3.58163 3.23699,-0.98008 c 1.81767,-0.55034 3.4678,-1.41136 3.7634,-1.96367 0.74325,-1.38879 3.14029,-1.23258 5.07266,0.33059 1.50298,1.21583 1.55508,1.37295 0.73322,2.21109 -0.71296,0.72708 -0.78278,1.27153 -0.35961,2.80412 0.50263,1.8204 0.41434,2.01434 -2.06124,4.52772 l -2.58638,2.62585 2.53889,2.57765 2.5389,2.57765 -1.94026,4.87284 -1.94026,4.87284 -4.12448,2.48845 c -3.06495,1.8492 -4.91178,2.58241 -7.18926,2.85418 l -3.06478,0.36572 -0.56801,-2.10944 c -0.31241,-1.16019 -0.72312,-2.88496 -0.9127,-3.83283 -0.39698,-1.9849 -0.66215,-2.02826 -5.29174,-0.86535 l -3.41595,0.85807 -3.05251,-2.02676 -3.05251,-2.02675 -1.89309,0.90276 c -1.0412,0.49651 -2.44542,0.76412 -3.12048,0.5947 -0.77545,-0.19463 -1.49147,0.0102 -1.94463,0.55618 -0.54995,0.66266 -1.25865,0.78303 -3.03854,0.51612 l -2.3213,-0.3481 -1.46349,2.984 c -1.10763,2.25841 -1.93876,3.19831 -3.41807,3.86539 -1.89389,0.85402 -2.05916,0.83603 -5.32236,-0.57918 l -3.36778,-1.46056 -1.49079,1.42827 c -0.81993,0.78554 -1.59885,1.42148 -1.73094,1.41319 -0.13208,-0.008 -2.64733,-1.34696 -5.58944,-2.97483 z"
       id="path1" />
    <path
       style="fill:#f6bad3;fill-opacity:1;stroke-width:0"
       d="m 229.34529,171.88543 c -5.7395,-2.09832 -6.06733,-2.29903 -6.06733,-3.71462 0,-1.00109 -0.44633,-1.7889 -1.3483,-2.37989 -0.80936,-0.53032 -1.3483,-1.3935 -1.3483,-2.1595 0,-0.70183 -0.77169,-2.84097 -1.71487,-4.75363 -1.38644,-2.81155 -2.11318,-3.6572 -3.79461,-4.41541 -1.96593,-0.88651 -2.18563,-0.88734 -4.01474,-0.0151 -1.06426,0.5075 -1.9879,0.85166 -2.05253,0.76479 -0.0646,-0.0869 -1.13436,-1.55343 -2.37718,-3.25903 -2.40441,-3.29973 -3.04634,-3.68472 -3.54167,-2.12408 -0.42462,1.33786 -5.47661,2.95312 -6.88271,2.20059 -0.79827,-0.42721 -1.57087,-0.23116 -3.4662,0.87957 -2.33024,1.36562 -2.48523,1.38746 -3.47679,0.49012 -0.81374,-0.73643 -1.03782,-1.66842 -1.03782,-4.31652 v -3.37729 l -2.71133,-0.58148 c -2.49686,-0.53548 -2.87994,-0.47502 -4.84315,0.76429 -1.1725,0.74017 -2.34315,1.34576 -2.60143,1.34576 -0.87807,0 -7.53285,-5.34359 -8.70523,-6.99005 -0.99955,-1.40373 -1.51025,-1.63904 -3.55731,-1.63904 -2.76664,0 -2.85989,-0.31476 -1.35806,-4.58421 l 0.94856,-2.6966 6.42528,-0.97974 c 6.12604,-0.93412 6.51898,-1.07226 8.43736,-2.96626 1.56215,-1.54228 2.13717,-2.64982 2.57142,-4.95276 0.47739,-2.53178 0.98619,-3.39368 3.47368,-5.8844 l 2.91436,-2.91815 3.57896,2.244 c 3.98685,2.49975 4.3692,2.57829 7.06582,1.45157 l 1.89656,-0.79243 1.05237,2.4551 c 0.57881,1.35031 1.05238,3.14284 1.05238,3.9834 0,0.84057 0.30337,1.63954 0.67415,1.77549 0.53932,0.19775 0.53932,0.39011 0,0.96178 -0.37078,0.39303 -0.67415,1.46695 -0.67415,2.38649 0,0.91954 -0.29159,1.96348 -0.64798,2.31987 -0.50444,0.50444 -0.18227,1.12493 1.45428,2.80091 1.82112,1.865 2.67419,2.27582 6.37875,3.07189 4.18376,0.89905 5.2102,1.43987 6.24618,3.29108 0.46576,0.83226 0.63069,0.80171 1.84862,-0.34248 1.11363,-1.04619 1.26186,-1.51909 0.88646,-2.82803 -0.51919,-1.81034 -0.37581,-1.85146 2.68747,-0.77067 1.73998,0.6139 2.82695,0.67638 4.65197,0.26738 3.44153,-0.77126 8.50038,0.6895 10.19597,2.94413 1.09094,1.45063 1.28388,2.49837 1.59501,8.66139 0.20332,4.02758 0.13539,7.73344 -0.15964,8.70848 -0.32976,1.08982 -0.32136,2.59859 0.0235,4.21541 0.45133,2.11614 0.39073,2.67976 -0.37964,3.53102 -0.75562,0.83495 -0.8489,1.59716 -0.53086,4.33749 0.42017,3.62017 -0.31241,5.94242 -1.84724,5.85572 -0.46897,-0.0265 -3.58297,-1.04635 -6.92001,-2.26636 z"
       id="path2" />
    <path
       style="fill:#f6bad3;fill-opacity:1;stroke-width:0"
       d="m 155.83575,129.29297 c -1.13276,-2.76842 -1.8214,-3.64772 -3.90013,-4.98 -2.03421,-1.30375 -2.5264,-1.91788 -2.5344,-3.16232 -0.01,-1.52148 0.0254,-1.53907 2.37291,-1.18703 2.35699,0.35345 2.40109,0.3308 4.06523,-2.08795 2.15219,-3.1281 3.05445,-3.5979 5.72183,-2.97931 1.16712,0.27066 2.30407,0.49791 2.52654,0.50498 0.22246,0.007 0.40448,-1.10521 0.40448,-2.47177 0,-2.07428 0.14508,-2.42896 0.87842,-2.14755 0.48313,0.18539 1.9469,0.60613 3.25282,0.93496 2.04187,0.51415 2.5198,0.46631 3.41248,-0.34156 0.95739,-0.86642 1.10605,-0.87145 1.91276,-0.0648 1.54177,1.54178 2.91575,2.00117 4.88198,1.6323 2.35781,-0.44233 2.65152,-1.14656 3.12354,-7.48941 0.31413,-4.22109 0.54018,-5.02522 1.77506,-6.314149 1.21757,-1.270863 1.91009,-1.499048 4.96124,-1.634709 l 3.54614,-0.15767 0.46071,-2.338817 c 0.40232,-2.042438 0.28968,-2.589186 -0.88886,-4.31455 -0.74226,-1.086653 -1.47828,-3.067853 -1.63561,-4.402667 -0.15732,-1.334814 -0.4251,-3.692461 -0.59506,-5.239216 l -0.30903,-2.812281 2.17332,-1.108741 2.17331,-1.10874 v -3.567807 -3.567807 l 3.94443,-4.915502 c 2.23782,-2.788741 5.43799,-7.747681 7.39643,-11.461406 l 3.45201,-6.545905 1.73279,1.321664 c 1.67837,1.280153 1.78708,1.293586 3.4615,0.427709 1.92037,-0.993058 2.64016,-0.522385 2.65597,1.736727 0.007,0.945396 1.57518,3.164099 4.66617,6.600138 0.11396,0.126688 0.87861,-0.412901 1.69921,-1.199087 1.26096,-1.208074 1.80794,-1.378157 3.53226,-1.098339 l 2.04026,0.331089 -1.71847,1.773017 c -1.34473,1.387403 -1.64419,2.069018 -1.3769,3.133998 0.20636,0.822196 -0.02,2.119265 -0.57183,3.27643 -0.87577,1.83652 -0.87037,1.947414 0.13111,2.691111 0.83558,0.620502 0.92508,0.970774 0.4474,1.751056 -0.96424,1.575061 -2.15565,1.444529 -2.88491,-0.316073 -0.53776,-1.29826 -1.30359,-1.82591 -3.94463,-2.717803 -1.80252,-0.608722 -3.37075,-1.013337 -3.48494,-0.899145 -0.11419,0.114192 0.17064,1.112919 0.63295,2.219394 0.46232,1.106475 0.84057,2.218379 0.84057,2.470899 0,0.761516 -5.56484,4.263014 -6.7751,4.263014 -0.61966,0 -1.71395,0.625149 -2.43176,1.38922 -1.00282,1.067447 -1.65316,1.319611 -2.80777,1.088687 -1.23469,-0.246938 -1.59119,-0.06772 -1.99901,1.004922 -0.27298,0.718001 -0.96168,1.554504 -1.53044,1.858897 -1.18744,0.635497 -2.44805,4.829969 -1.71652,5.711413 0.27501,0.33136 0.27893,0.903767 0.009,1.34022 -0.27478,0.444605 -0.25234,1.17008 0.0539,1.742256 0.28859,0.539234 0.366,1.826452 0.17201,2.860483 -0.3314,1.76652 -0.48005,1.880058 -2.46152,1.880058 -1.66542,0 -2.22373,0.255138 -2.65539,1.213467 -0.76739,1.703699 1.032,6.951957 2.63256,7.678351 2.0719,0.940304 1.01949,2.973194 -1.53921,2.973194 -1.17634,0 -1.63632,0.46632 -2.6999,2.73711 -0.7051,1.50542 -1.6853,2.95296 -2.17822,3.21676 -0.49292,0.26381 -1.05209,1.25897 -1.24259,2.21146 -0.21652,1.08265 -1.52802,2.9624 -3.49867,5.01463 -2.85529,2.97349 -3.18778,3.56669 -3.52874,6.29562 -0.31597,2.52891 -0.69666,3.31657 -2.37025,4.90411 -1.80119,1.70859 -2.46276,1.95523 -6.84769,2.55283 -4.14785,0.56529 -12.13926,2.18462 -14.83126,3.00532 -0.5747,0.1752 -1.20737,-0.72703 -2.18464,-3.11543 z"
       id="path3" />
    <path
       style="fill:#f6bad3;fill-opacity:1;stroke-width:0"
       d="m 217.1269,137.94963 c -0.68629,-1.0474 -1.7807,-1.51393 -5.31162,-2.26422 -3.44969,-0.73304 -4.82738,-1.30904 -6.14204,-2.56793 -1.50399,-1.44019 -1.66318,-1.87541 -1.41384,-3.86542 0.15454,-1.23337 0.75594,-2.76562 1.33644,-3.40498 1.04933,-1.15573 1.04893,-1.16457 -0.0693,-1.51947 -0.80694,-0.25612 -1.12476,-0.8088 -1.12476,-1.95592 0,-0.87942 -0.36404,-2.47021 -0.80898,-3.53509 -0.98468,-2.35668 -1.00911,-2.88062 -0.13483,-2.89133 1.60978,-0.0197 2.00846,-0.80614 1.44438,-2.84908 -0.49449,-1.7909 -0.40201,-2.19772 0.88242,-3.8817 0.91711,-1.20239 2.17491,-2.08041 3.48603,-2.43346 1.28333,-0.34557 2.62487,-1.26741 3.5836,-2.46249 1.33648,-1.66596 1.70426,-1.8458 2.87688,-1.40674 1.06434,0.39852 1.98414,0.18192 4.41429,-1.03952 2.83485,-1.42485 3.2889,-1.50143 5.93251,-1.0006 1.57449,0.29829 4.86707,1.19483 7.31685,1.99231 3.7389,1.21712 4.66988,1.76127 5.79767,3.38867 1.42021,2.04936 1.90806,4.00929 0.69635,2.79759 -0.35595,-0.35595 -1.67871,-0.64718 -2.93947,-0.64718 h -2.29229 l -0.35863,3.16988 c -0.42756,3.77911 -0.53181,3.96797 -2.84469,5.15332 -1.57718,0.80831 -1.75246,1.10304 -1.40792,2.36736 0.51335,1.88377 0.47343,2.45101 -0.56085,7.97062 -0.47971,2.56005 -0.72155,5.34053 -0.53743,6.17884 0.31119,1.41683 0.19386,1.55065 -1.66535,1.89944 -1.31176,0.24608 -2.96457,0.0712 -4.80244,-0.50813 -3.95831,-1.24775 -4.06062,-1.21566 -3.42815,1.07496 0.42761,1.54869 0.37326,2.12577 -0.25987,2.7589 -0.70791,0.70791 -0.90066,0.64787 -1.66498,-0.51863 z"
       id="path4" />
    <path
       style="fill:#f6bad3;fill-opacity:1;stroke-width:0"
       d="m 219.12257,52.90379 c -0.95065,-1.108481 -1.96055,-3.048382 -2.24421,-4.310893 -0.28367,-1.26251 -0.66171,-2.441419 -0.84009,-2.619797 -0.17837,-0.178379 -1.17911,0.0833 -2.22385,0.581499 -1.75312,0.836002 -2.00202,0.838672 -3.22914,0.03463 -0.73129,-0.479156 -1.32961,-1.189019 -1.32961,-1.577474 0,-0.388455 1.84644,-3.681645 4.1032,-7.318202 3.57605,-5.762462 3.99408,-6.691714 3.25381,-7.233016 -0.74095,-0.541792 -0.60334,-0.856196 1.07775,-2.462339 1.05993,-1.012683 3.37984,-3.988777 5.15536,-6.613543 l 3.22821,-4.772302 1.46291,1.40156 c 1.42293,1.363253 1.65579,1.401559 8.51963,1.401559 8.83966,0 9.60408,0.397489 9.03367,4.697415 -0.33623,2.53464 -0.5188,2.828688 -1.95174,3.143414 -0.86945,0.190963 -1.4995,0.507118 -1.40011,0.702568 1.73949,3.420816 1.77563,3.064231 -0.59542,5.876154 -2.40244,2.849154 -2.67143,3.630473 -1.41576,4.112318 0.45341,0.173989 0.80898,0.976271 0.80898,1.825315 0,2.063224 1.4013,3.91216 2.965,3.91216 0.70724,0 1.42836,0.230516 1.60248,0.512259 0.42332,0.684944 -1.45434,1.645016 -3.21723,1.645016 -0.97305,0 -3.05101,1.341142 -6.62977,4.278928 -3.25509,2.672084 -5.42475,4.102798 -5.77766,3.809904 -0.31083,-0.257963 -1.77437,-0.629434 -3.25231,-0.825491 -2.30973,-0.306396 -2.83092,-0.197636 -3.71051,0.774306 -0.56283,0.621924 -1.16774,1.110228 -1.34424,1.08512 -0.17649,-0.02511 -1.0987,-0.95259 -2.04935,-2.06107 z"
       id="path5" />
    <path
       style="fill:#f6bad3;fill-opacity:1;stroke-width:0"
       d="m 245.54017,107.98281 c -0.56624,-1.41712 -0.59905,-1.42738 -0.95847,-0.2997 -0.31932,1.00187 -0.57551,1.09522 -1.80436,0.65746 -0.78771,-0.28062 -2.10161,-1.45435 -2.91976,-2.60829 -1.21607,-1.71518 -2.15114,-2.31488 -5.12353,-3.28597 -1.99978,-0.65333 -3.83045,-1.36446 -4.06815,-1.58028 -0.23769,-0.21581 0.47713,-1.190767 1.5885,-2.16656 l 2.02067,-1.774171 -0.90665,-3.456808 -0.90665,-3.456806 3.02212,-4.015262 c 2.99444,-3.978474 3.01375,-4.028055 2.10727,-5.411521 -0.79906,-1.219522 -0.81681,-1.509953 -0.14021,-2.294461 1.06898,-1.239467 4.70316,-7.581798 4.70316,-8.2079 0,-0.280733 -0.60673,-0.510424 -1.34829,-0.510424 -0.74157,0 -1.3483,-0.242694 -1.3483,-0.539319 0,-0.296625 0.42471,-0.539566 0.94381,-0.539867 0.56619,-3.29e-4 1.52839,-1.041412 2.40489,-2.602045 1.35034,-2.404293 1.71351,-2.671675 4.79097,-3.527284 4.15246,-1.154487 8.03989,-0.768676 8.03989,0.797926 0,1.134509 0.65603,1.281526 2.15021,0.481864 0.91257,-0.488394 1.03367,-0.227277 1.37567,2.966254 0.38309,3.577276 0.84652,4.104691 2.38405,2.713245 0.51394,-0.465107 1.37072,-0.657952 2.08885,-0.470157 1.11748,0.292228 1.20447,0.584616 1.05875,3.558624 l -0.15877,3.240236 -3.50557,1.812363 c -6.00899,3.106617 -6.28935,4.098265 -3.1301,11.071244 l 1.62766,3.5925 -1.4054,4.739316 c -0.77297,2.606624 -1.58771,4.897783 -1.81054,5.091473 -0.22283,0.19369 -2.3467,1.75714 -4.7197,3.47435 -2.373,1.7172 -4.57356,3.32359 -4.89013,3.56976 -0.35959,0.27962 -0.7956,-0.10307 -1.16189,-1.01979 z"
       id="path6" />
    <path
       style="fill:#f6bad3;fill-opacity:1;stroke-width:0"
       d="m 252.94049,105.51876 c 0,-0.11455 0.95797,-0.84223 2.12883,-1.61706 1.93937,-1.28342 2.27249,-1.87278 3.74315,-6.622416 l 1.61433,-5.21362 -1.50825,-3.022163 c -0.82955,-1.662189 -1.67454,-3.711014 -1.87778,-4.552943 l -0.36952,-1.530781 3.39297,2.457371 c 9.03536,6.543873 10.71157,7.5485 12.71569,7.621053 1.10164,0.03988 2.41391,0.257607 2.91616,0.483831 0.84987,0.382807 0.85229,0.53898 0.0349,2.252989 -0.768,1.61051 -1.13105,1.84167 -2.89248,1.84167 -1.66205,0 -2.62497,0.521344 -5.50685,2.981499 -3.19365,2.72631 -3.85516,3.04913 -7.72843,3.77154 -2.3297,0.43452 -4.78189,0.91767 -5.4493,1.07366 -0.6674,0.156 -1.21346,0.18991 -1.21346,0.0754 z"
       id="path7" />
    <path
       style="fill:#f6bad3;fill-opacity:1;stroke-width:0"
       d="m 254.74017,147.09919 c -3.4271,-3.64541 -6.11423,-7.87276 -6.11423,-9.61881 0,-1.67387 -0.0426,-1.7031 -2.02258,-1.38649 -1.56943,0.25096 -2.5555,0.0207 -4.40116,-1.02764 l -2.37858,-1.35105 -1.47241,1.41066 -1.47242,1.41066 -3.2714,-0.91791 c -4.27313,-1.19898 -4.53576,-1.94424 -3.21939,-9.1359 0.68159,-3.72371 0.83536,-5.8485 0.4942,-6.82893 -0.45452,-1.3062 -0.3265,-1.49938 1.55629,-2.3484 1.99114,-0.89788 2.06244,-1.02671 2.42095,-4.3744 l 0.36938,-3.44928 h 1.77865 c 0.97826,0 2.08078,0.36404 2.45005,0.80898 0.97262,1.17194 2.15727,0.99218 2.15727,-0.32736 0,-0.81462 0.24153,-1.04365 0.85309,-0.80898 0.4692,0.18005 0.95459,0.32736 1.07864,0.32736 0.12405,0 0.22555,0.45942 0.22555,1.02094 0,0.56151 0.38389,1.16825 0.85309,1.3483 1.36238,0.52279 1.83154,0.3844 1.51278,-0.44627 -0.35148,-0.91593 4.12367,-4.38488 4.62025,-3.58142 0.17707,0.28651 1.45382,0.77458 2.83722,1.08461 2.12004,0.47511 2.89337,0.40161 4.92153,-0.46776 2.29056,-0.98185 2.56427,-0.98911 5.69259,-0.15092 3.00108,0.8041 3.30723,1.02281 3.52708,2.51965 1.15864,7.88866 1.01534,7.47085 2.73174,7.96499 0.88987,0.25619 5.07633,0.30793 9.30324,0.11498 7.04567,-0.32162 7.6853,-0.27358 7.6853,0.57713 0,0.70994 0.28509,0.84298 1.21346,0.56627 3.29023,-0.98066 8.53781,-1.55427 9.09763,-0.99445 1.04421,1.04421 -0.0362,2.67633 -3.18046,4.80456 l -3.08574,2.08861 3.92794,0.15882 c 3.29372,0.13318 4.18631,-0.0252 5.52802,-0.98053 l 1.60007,-1.13935 v 1.65468 c 0,1.75785 0.45571,2.06189 1.51009,1.0075 1.115,-1.115 0.81233,4.98566 -0.32037,6.45736 l -0.94356,1.22597 -3.49382,-2.46355 -3.49382,-2.46355 -1.07864,1.30425 c -0.59325,0.71734 -2.63081,3.03378 -4.5279,5.14765 -2.94894,3.28589 -3.70641,3.84338 -5.22202,3.84338 -1.24666,0 -1.86606,-0.29401 -2.08719,-0.99074 -0.44088,-1.38906 -3.57568,-2.24684 -6.08338,-1.6646 -2.76986,0.64312 -2.68396,0.66695 -3.06475,-0.85023 -0.42425,-1.69032 -1.63524,-1.72276 -3.17503,-0.085 -1.08312,1.15201 -1.33019,1.20165 -2.80567,0.56365 -2.62723,-1.13602 -3.05691,-0.971 -2.68156,1.0298 0.53958,2.87619 -1.00988,5.98852 -3.55207,7.13489 -1.75289,0.79044 -2.12581,1.22807 -2.12581,2.49465 0,1.3233 -0.20945,1.53605 -1.51216,1.53605 -1.00846,0 -2.06104,-0.58384 -3.15998,-1.75278 z"
       id="path8" />
    <path
       style="fill:#f6bad3;fill-opacity:1;stroke-width:0"
       d="m 256.1764,184.8509 c 0,-1.59759 -0.3768,-4.17354 -0.83734,-5.72434 -1.15189,-3.87885 -0.75465,-4.78354 2.30167,-5.24186 2.17477,-0.32613 3.18905,-1.01319 8.04121,-5.447 4.88179,-4.4609 6.02745,-5.23416 9.48402,-6.40128 2.16232,-0.73011 4.27121,-1.45335 4.68642,-1.60719 0.58553,-0.21695 0.47723,-0.57532 -0.4826,-1.59702 -0.88907,-0.94637 -1.47759,-1.18297 -2.09001,-0.84024 -0.65569,0.36694 -1.10448,0.0326 -1.94432,-1.44833 -0.95293,-1.68038 -1.96691,-2.30029 -7.96819,-4.87144 -6.03775,-2.58678 -6.87631,-3.10146 -6.87631,-4.22047 0,-0.93073 0.54791,-1.55396 2.03163,-2.31089 1.60116,-0.81685 2.23384,-1.59881 2.98602,-3.69055 0.5366,-1.49223 0.78671,-3.09109 0.57134,-3.65235 -0.30657,-0.7989 -0.19281,-0.92524 0.56965,-0.63265 2.73897,1.05104 3.62718,1.02883 4.42531,-0.11066 1.03507,-1.47776 1.51098,-1.44538 2.23895,0.15234 0.5506,1.20845 0.75018,1.26304 2.87349,0.78597 2.83359,-0.63667 5.1731,-0.16275 5.89982,1.19513 0.41493,0.7753 1.13871,1.0348 2.88617,1.0348 2.2483,0 2.4917,-0.17434 6.75359,-4.83743 l 4.42124,-4.83744 3.31273,2.4105 c 1.82201,1.32578 3.45455,2.4105 3.62787,2.4105 0.50889,0 2.16564,-3.05491 2.16564,-3.99327 0,-1.43538 3.35179,-1.1112 4.83503,0.46764 1.18448,1.26083 1.20315,1.39642 0.36775,2.67139 -0.53876,0.82225 -1.6137,1.48078 -2.77176,1.69804 -1.75247,0.32876 -1.89131,0.49932 -1.8864,2.31731 0.004,1.57254 0.86143,3.19169 4.31455,8.1498 2.37009,3.40306 4.30554,6.31538 4.301,6.47182 -0.0249,0.8556 -0.98528,1.55685 -2.35422,1.71891 -1.27014,0.15037 -1.72392,0.62168 -2.51336,2.61043 -0.92308,2.32546 -0.92328,2.46076 -0.005,3.23591 1.41637,1.19526 0.51718,3.84146 -1.85408,5.45634 -2.11866,1.44286 -2.62555,3.84705 -0.95065,4.50902 0.69641,0.27524 0.0572,0.70913 -2.43848,1.65531 l -3.38228,1.2823 -7.51153,-1.5185 c -7.3523,-1.4863 -7.54356,-1.49762 -9.02205,-0.53372 -0.90301,0.58872 -1.74565,1.8041 -2.09517,3.02197 -0.4952,1.72549 -0.83901,2.06253 -2.24704,2.20283 -1.29297,0.12883 -2.30161,0.9364 -4.53887,3.63402 -2.58451,3.11632 -3.07899,3.46903 -4.87149,3.47476 -1.63298,0.005 -2.2499,0.34057 -3.3997,1.84804 -1.29283,1.69499 -1.542,1.80132 -3.12853,1.33517 -1.56507,-0.45984 -4.53056,-0.28805 -6.98218,0.40448 -0.81504,0.23023 -0.94381,-0.12969 -0.94381,-2.6381 z"
       id="path9" />
    <path
       style="fill:#f6bad3;fill-opacity:1;stroke-width:0"
       d="m 264.59328,216.06885 c -1.15491,-0.69909 -2.38551,-1.96996 -2.73466,-2.82415 -0.59413,-1.45355 -0.99527,-1.62249 -6.2596,-2.63622 l -5.62479,-1.08315 -2.22929,-4.58421 -2.2293,-4.58421 1.53928,-1.3483 c 1.13002,-0.98981 1.57935,-1.92187 1.68998,-3.50557 0.1501,-2.14866 0.16179,-2.15916 2.93054,-2.62902 2.5293,-0.42924 2.86389,-0.65812 3.71227,-2.5395 0.82445,-1.8283 1.20852,-2.10915 3.31666,-2.42528 1.31133,-0.19665 3.56758,-0.20057 5.01387,-0.009 2.53892,0.3368 2.67966,0.28325 4.07973,-1.55234 1.20482,-1.57961 1.7922,-1.90118 3.47264,-1.90118 1.83115,0 2.29715,-0.33112 4.92468,-3.4992 2.44649,-2.94978 3.16992,-3.50019 4.60754,-3.50557 1.55421,-0.006 1.73622,-0.1889 2.05328,-2.06559 0.25335,-1.49957 0.77575,-2.31194 1.9222,-2.98917 1.51307,-0.89379 1.86386,-0.87304 9.01981,0.53341 l 7.44552,1.46336 4.02783,-1.51583 c 2.2153,-0.83371 4.48286,-1.90663 5.03902,-2.38426 0.96532,-0.82902 0.99439,-0.79089 0.64089,0.84067 -0.52603,2.42783 1.12576,5.35829 4.77993,8.48014 2.47794,2.11698 3.00594,2.86878 3.00535,4.27925 -6.6e-4,1.55241 -0.32567,1.88613 -3.50486,3.5987 -3.36189,1.81099 -3.50416,1.97042 -3.50485,3.92744 -9.5e-4,2.69882 -1.62428,3.45586 -4.13774,1.92964 -1.8227,-1.10678 -1.98761,-1.02268 -2.54207,1.29645 -0.34876,1.45875 -0.39022,1.47319 -1.9354,0.67415 -2.24775,-1.16236 -2.54735,-1.05007 -2.9519,1.10639 -0.30154,1.60733 -0.73183,2.08394 -2.62179,2.90401 -1.32986,0.57703 -2.47205,0.78461 -2.77339,0.50401 -0.2818,-0.26239 -2.22335,-0.47683 -4.31455,-0.47653 l -3.8022,5.5e-4 -1.45509,2.59082 c -1.41425,2.51811 -1.56603,2.61698 -5.40759,3.52263 -3.62689,0.85504 -4.14715,1.15778 -6.31539,3.67495 -1.29959,1.50873 -2.70737,3.743 -3.12839,4.96505 -1.18632,3.44332 -2.3746,3.80846 -5.74817,1.76637 z"
       id="path10" />
    <path
       style="fill:#f6bad3;fill-opacity:1;stroke-width:0"
       d="m 210.4022,233.36515 c -1.95125,-2.53881 -1.96597,-2.68479 -0.82631,-8.19562 l 0.85955,-4.15631 -2.67964,-4.39565 c -1.47379,-2.41761 -2.83461,-5.12373 -3.02403,-6.0136 -0.219,-1.02881 0.14674,-3.38541 1.00441,-6.47183 0.74185,-2.66963 1.35183,-5.90364 1.35551,-7.1867 0.005,-1.74289 0.55828,-3.27727 2.18777,-6.06734 2.11746,-3.6256 2.24345,-3.7345 4.32041,-3.7345 2.05726,0 2.19516,0.11381 3.59413,2.96625 0.80013,1.63144 1.69948,2.96626 1.99856,2.96626 0.29907,0 1.5362,-0.37902 2.74918,-0.84226 2.13057,-0.81367 2.46851,-0.776 9.95684,1.10978 5.10256,1.28498 8.40965,1.85163 9.67762,1.65821 1.59476,-0.24326 2.24288,-0.0205 3.76652,1.29467 l 1.8403,1.58849 -1.28887,1.04367 -1.28888,1.04366 1.82923,4.23718 c 1.00607,2.33045 2.14023,4.60576 2.52035,5.05625 1.24409,1.4744 -0.10861,5.18251 -3.84613,10.54322 l -3.47094,4.97836 -3.38224,0.37754 c -2.71824,0.30343 -3.71237,0.6919 -5.06391,1.97878 -1.17604,1.11979 -2.90376,1.9143 -5.74621,2.64247 -2.2355,0.57268 -6.60543,2.10577 -9.71095,3.40687 l -5.64641,2.36564 z"
       id="path11" />
    <path
       style="fill:#f6bad3;fill-opacity:1;stroke-width:0"
       d="m 246.40858,189.28531 c -1.59839,-1.836 -4.26953,-5.79928 -5.93587,-8.80728 l -3.02969,-5.4691 1.02363,-1.45455 c 0.90466,-1.28551 0.96042,-1.84704 0.47975,-4.8317 -0.48731,-3.02597 -0.4366,-3.49161 0.48774,-4.47795 0.89803,-0.95828 0.96171,-1.42766 0.4918,-3.62513 -0.34983,-1.63596 -0.35751,-3.18452 -0.0218,-4.40033 0.75377,-2.72993 -0.21932,-15.24548 -1.36081,-17.50222 -0.85973,-1.69971 -0.85101,-1.82253 0.20422,-2.87776 l 1.10227,-1.10228 2.63528,1.32814 c 1.92276,0.96905 2.96337,1.20501 3.84874,0.8727 1.05712,-0.39677 1.21347,-0.281 1.21347,0.89849 0,1.42632 3.14799,6.12499 6.38653,9.5325 1.54973,1.63059 2.31113,2.02245 3.92971,2.02245 1.2393,0 4.67261,1.14522 8.97164,2.99259 6.22459,2.67481 7.05935,3.19238 7.86132,4.87413 0.73335,1.53785 1.15767,1.85322 2.32287,1.72645 2.94142,-0.32 1.68306,1.02101 -2.09301,2.2305 -3.37265,1.08026 -4.54433,1.82816 -8.40854,5.36729 -5.84664,5.35479 -7.27409,6.34192 -9.74122,6.73643 -2.9365,0.46957 -3.40469,1.84203 -2.1398,6.27274 0.55015,1.92712 1.00028,4.54575 1.00028,5.81916 0,2.77929 -1.7955,6.58386 -3.11204,6.59425 -0.51307,0.004 -1.44527,0.14491 -2.07157,0.31302 -0.9004,0.24168 -1.74696,-0.393 -4.04489,-3.03254 z"
       id="path12" />
    <path
       style="fill:#f6bad3;fill-opacity:1;stroke-width:0"
       d="m 285.97376,239.08088 c -0.37078,-0.13891 -0.67415,-0.5549 -0.67415,-0.92441 0,-0.36952 -1.2317,-1.24874 -2.73711,-1.95384 -3.057,-1.43182 -3.43214,-1.93528 -3.94578,-5.29548 -0.48256,-3.15691 -2.6864,-6.01124 -4.6413,-6.01124 -1.13901,0 -2.08855,-0.70245 -4.04478,-2.99224 -2.65517,-3.1079 -2.68013,-3.25485 -0.71919,-4.23407 0.67303,-0.33608 1.39985,-1.40762 1.67461,-2.46884 0.267,-1.03127 1.59017,-3.23978 2.94038,-4.90779 2.3289,-2.87708 2.65762,-3.08054 6.40372,-3.96369 3.81297,-0.8989 4.00501,-1.02228 5.58278,-3.58648 l 1.63398,-2.65555 h 3.13303 c 1.72317,0 3.40649,0.27346 3.74072,0.60769 0.4507,0.4507 1.31327,0.35396 3.339,-0.37449 2.39508,-0.86126 2.77324,-1.20561 3.07184,-2.7973 0.39865,-2.12499 0.24317,-2.15503 6.51222,1.25846 4.12799,2.2477 4.64788,2.73688 7.96479,7.49431 1.9517,2.79931 4.05059,5.4413 4.66421,5.87109 l 1.11567,0.78145 -1.16468,0.36965 c -1.02099,0.32405 -1.12073,0.62979 -0.80845,2.47816 0.30672,1.81547 0.21848,2.10901 -0.63498,2.11218 -0.54517,0.002 -1.52982,0.79493 -2.18812,1.762 -0.6583,0.96707 -2.15281,2.69171 -3.32113,3.83255 l -2.12421,2.07424 -5.30798,-1.75816 c -2.91939,-0.96698 -5.59918,-1.86516 -5.95511,-1.99595 -0.35592,-0.13079 -0.99063,0.57226 -1.41046,1.56232 -0.41983,0.99007 -1.8632,2.61529 -3.20748,3.6116 -1.41144,1.04608 -2.85574,2.7242 -3.41825,3.97163 l -0.97409,2.16014 1.44643,1.05366 c 1.38079,1.00583 1.40743,1.11318 0.58696,2.36537 -0.6413,0.97875 -1.342,1.31171 -2.76043,1.31171 -1.04553,0 -2.17041,0.33612 -2.49974,0.74694 -0.32932,0.41082 -0.90214,0.63329 -1.27292,0.49438 z"
       id="path13" />
    <path
       style="fill:#f6bad3;fill-opacity:1;stroke-width:0"
       d="m 297.28926,251.95029 c -0.54668,-0.34698 -0.51956,-0.90141 0.13483,-2.75614 0.45054,-1.27698 0.81917,-2.61912 0.81917,-2.98252 0,-0.36341 -1.25401,-2.31725 -2.78668,-4.34187 l -2.78669,-3.68113 0.92697,-1.61515 c 0.91405,-1.59264 0.90685,-1.63121 -0.51711,-2.76663 -1.40311,-1.1188 -1.41981,-1.19842 -0.5886,-2.80582 0.47052,-0.90988 2.07858,-2.67836 3.57346,-3.92995 1.49488,-1.25158 2.71797,-2.62467 2.71797,-3.05129 0,-1.41953 1.31255,-1.31263 6.87226,0.55969 l 5.51353,1.85677 3.69136,-4.00608 c 2.03025,-2.20334 4.09731,-4.00608 4.59348,-4.00608 1.04117,0 1.07584,-0.21037 0.4146,-2.51597 -0.42716,-1.48943 -0.34617,-1.73684 0.65426,-1.99845 0.63693,-0.16656 1.52705,0.0501 2.01311,0.48996 0.57798,0.52306 2.06177,0.78855 4.40724,0.78855 3.17651,0 3.62571,-0.13705 4.41935,-1.3483 1.00376,-1.53193 3.39909,-1.84323 3.91135,-0.50833 0.17728,0.46199 0.65505,0.7123 1.06171,0.55625 0.4365,-0.1675 0.73938,0.0699 0.73938,0.57947 0,0.47476 0.89416,1.7065 1.98702,2.7372 l 1.98701,1.874 -1.27765,0.96374 c -1.24926,0.94232 -1.25651,0.99601 -0.32597,2.41619 0.52343,0.79886 0.87162,1.51342 0.77377,1.58793 -0.0979,0.0745 -1.33072,0.91454 -2.73969,1.86673 -1.40897,0.9522 -2.56177,1.88598 -2.56177,2.07508 0,0.18911 0.52072,0.8981 1.15715,1.57555 l 1.15715,1.23173 -1.42681,0.54247 c -0.89446,0.34007 -1.4268,0.94989 -1.4268,1.63446 0,0.60059 -0.11921,1.09198 -0.26492,1.09198 -0.1457,0 -1.95704,-0.75661 -4.0252,-1.68136 -4.80733,-2.14953 -6.13879,-1.90665 -6.94428,1.26675 -0.46709,1.84018 -0.42697,2.5327 0.20238,3.49321 1.05613,1.61187 1.00428,1.77527 -0.56334,1.77527 -0.83894,0 -1.34829,0.30561 -1.34829,0.80898 0,0.44494 -0.32643,0.80898 -0.72539,0.80898 -0.39897,0 -1.16466,0.48538 -1.70155,1.07863 -0.60554,0.66912 -1.66108,1.07864 -2.78018,1.07864 -1.79739,0 -1.80403,0.01 -1.80403,2.61085 v 2.61085 l -3.6404,1.4358 c -3.71116,1.46371 -9.78429,3.03453 -11.73018,3.03401 -0.59325,-1.6e-4 -1.38659,-0.19575 -1.76298,-0.43465 z m 9.04378,-8.44788 c 0,-0.52713 -0.51671,-0.803 -1.48312,-0.79183 -1.4206,0.0164 -1.439,0.0505 -0.43624,0.80898 1.33395,1.00895 1.91936,1.00372 1.91936,-0.0172 z"
       id="path14" />
    <path
       style="fill:#f6bad3;fill-opacity:1;stroke-width:0"
       d="m 321.80235,212.52955 c -1.42882,-1.11762 -4.16107,-4.24221 -6.07165,-6.94353 -2.94597,-4.16523 -3.99428,-5.20257 -6.89946,-6.82723 -3.01405,-1.68556 -3.3948,-2.07726 -3.16872,-3.2599 0.28471,-1.48939 0.74697,-1.64235 2.20728,-0.73038 0.67668,0.4226 1.47232,0.45161 2.55444,0.0931 1.30263,-0.43151 1.60025,-0.85883 1.73874,-2.49643 0.15321,-1.81174 0.46671,-2.15008 3.77523,-4.07446 4.52171,-2.63002 7.23405,-3.13981 10.26114,-1.92862 1.42437,0.56993 2.90635,0.77758 4.03642,0.56557 1.45299,-0.27258 2.01731,-0.0884 3.02892,0.98837 0.73842,0.78601 2.33035,1.55651 3.92054,1.89754 3.30408,0.7086 7.43944,3.06389 7.43944,4.23713 0,0.47968 1.02131,1.91278 2.26957,3.18466 1.24826,1.27189 1.97634,2.31252 1.61795,2.31252 -0.98301,0 -0.78194,1.48762 0.3547,2.62427 0.9822,0.9822 0.94956,1.03388 -1.36272,2.15727 -1.40337,0.68181 -3.41489,1.15097 -4.93479,1.15097 -2.39539,0 -2.76028,0.19697 -5.49517,2.96625 -1.8083,1.83105 -3.38919,2.96625 -4.13081,2.96625 -0.76295,0 -1.55019,0.59047 -2.15715,1.61796 -0.86789,1.46922 -1.20534,1.61395 -3.67089,1.57432 -2.28542,-0.0367 -3.1263,-0.36524 -5.31301,-2.07567 z"
       id="path15" />
    <path
       style="fill:#f6bad3;fill-opacity:1;stroke-width:0"
       d="m 326.32406,185.57531 c -1.77149,-0.71893 -2.88901,-0.85434 -4.31455,-0.52281 -2.76707,0.64352 -2.73041,0.66411 -2.75834,-1.5493 -0.0226,-1.79245 -0.36352,-2.29294 -2.99771,-4.40099 -3.93248,-3.14703 -5.06956,-5.35369 -4.3931,-8.52541 0.27983,-1.31204 0.3616,-2.53272 0.1817,-2.71261 -0.17989,-0.1799 -0.99677,0.31451 -1.81528,1.09869 -1.05229,1.00816 -1.84049,1.33365 -2.69096,1.11125 -1.75451,-0.45881 -1.47973,-1.4967 0.89399,-3.37672 2.47209,-1.95793 3.48542,-5.19268 1.9731,-6.29852 -0.80514,-0.58873 -0.80407,-0.8134 0.0136,-2.85704 0.74943,-1.873 1.12712,-2.21805 2.42791,-2.21805 1.66465,0 3.01821,-1.67369 2.29888,-2.84257 -0.22441,-0.36465 -2.29853,-3.37507 -4.60915,-6.68981 -4.92716,-7.06833 -5.26722,-8.52954 -2.10921,-9.06308 1.6541,-0.27946 2.29896,-0.73785 3.08108,-2.19015 l 0.98914,-1.83673 -1.56402,-1.63248 c -1.20544,-1.25821 -2.03548,-1.63248 -3.62039,-1.63248 -2.02316,0 -2.05638,-0.0333 -2.05638,-2.05879 0,-2.0207 0.0545,-2.07594 2.94378,-2.98672 2.93997,-0.92675 2.94728,-0.92618 5.64876,0.44277 2.5494,1.29188 2.67411,1.45191 2.16828,2.78235 -0.46718,1.22878 -0.27575,1.73502 1.47787,3.90812 1.10802,1.37306 3.55577,4.10963 5.43945,6.08126 l 3.42487,3.58479 -1.9408,3.85391 -1.9408,3.85391 1.50152,2.1227 c 1.51299,2.1389 2.58117,2.68203 2.97154,1.51092 0.11638,-0.34915 0.45208,-0.48619 0.74599,-0.30454 0.29392,0.18165 0.47254,1.91059 0.39694,3.84208 -0.12206,3.11819 -0.015,3.55069 0.95555,3.85872 0.68668,0.21794 1.48087,-0.004 2.13631,-0.59726 1.47135,-1.33156 1.80507,-0.66837 0.49912,0.99188 -0.6006,0.76353 -2.1815,1.80433 -3.51313,2.31288 -2.39594,0.91502 -2.42072,0.95053 -2.38176,3.41313 0.0663,4.19014 0.82206,8.25481 1.62492,8.73916 2.24713,1.35566 2.2272,1.29767 1.67318,4.8671 -0.51406,3.31199 -0.48107,3.50062 0.8615,4.92697 0.76781,0.81572 1.12777,1.48312 0.79991,1.48312 -0.32786,0 -0.91933,0.10814 -1.31437,0.24029 -0.39504,0.13216 -1.79408,-0.19631 -3.10897,-0.72994 z"
       id="path16" />
    <path
       style="fill:#f6bad3;fill-opacity:1;stroke-width:0"
       d="m 342.21467,166.91907 c -2.10008,-1.28998 -2.16096,-1.29564 -3.23591,-0.30063 -1.03571,0.95868 -1.34604,0.97208 -5.67978,0.24533 -6.50706,-1.09122 -7.01114,-1.23397 -7.01114,-1.98558 0,-0.36967 1.15279,-1.09042 2.56176,-1.60167 1.79888,-0.65273 3.00343,-1.55928 4.04489,-3.04418 0.81572,-1.16305 1.48313,-2.25788 1.48313,-2.43295 0,-0.74877 -2.45069,-0.2307 -3.47915,0.73549 -1.55504,1.46089 -2.68977,0.71685 -1.93487,-1.2687 0.37709,-0.99181 0.38345,-1.80414 0.0195,-2.48428 -0.36924,-0.68993 -0.35812,-1.12354 0.0351,-1.36653 0.37981,-0.23473 0.27049,-0.69342 -0.32103,-1.34704 -0.49332,-0.54512 -0.7375,-1.2491 -0.54262,-1.56442 0.69134,-1.11862 -0.66912,-0.55416 -1.4314,0.59389 l -0.77498,1.16718 -1.19087,-1.67242 -1.19086,-1.67241 2.01771,-4.07773 2.01771,-4.07772 -2.81424,-2.84964 c -1.54783,-1.5673 -2.81423,-3.05605 -2.81423,-3.30834 0,-0.25228 0.50058,-1.26866 1.11241,-2.25862 0.98351,-1.59135 1.23682,-1.72372 2.18602,-1.14229 0.84878,0.5199 1.006,1.02469 0.75077,2.41041 -0.27839,1.51141 -0.17095,1.75278 0.78023,1.75278 0.60669,0 1.10679,0.18202 1.11133,0.40449 0.0273,1.33749 0.92609,1.74698 2.57377,1.17259 1.78942,-0.62379 1.79575,-0.6401 2.55082,-6.56578 0.36276,-2.8469 0.47643,-2.89355 4.25611,-1.74694 1.45612,0.44172 4.48979,0.80967 6.74149,0.81764 3.65561,0.013 4.28416,0.1723 5.86979,1.48801 l 1.77579,1.4735 -1.52471,3.77035 c -1.51511,3.74662 -1.521,3.8077 -0.93645,9.70286 0.47522,4.79256 0.93456,6.6871 2.3905,9.85958 1.68302,3.66729 1.74007,3.97253 0.86244,4.61427 -0.87682,0.64114 -0.88169,0.82629 -0.0727,2.76239 0.47689,1.14135 0.80321,2.13821 0.72516,2.21524 -0.078,0.077 -1.23403,-0.0718 -2.56884,-0.33082 -2.33866,-0.45374 -2.48579,-0.403 -4.04489,1.39512 -0.88988,1.0263 -1.73931,1.85841 -1.88762,1.84914 -0.14831,-0.009 -1.23281,-0.60848 -2.41,-1.33157 z"
       id="path17" />
    <path
       style="fill:#f6bad3;fill-opacity:1;stroke-width:0"
       d="m 380.84251,181.53385 c -0.66809,-2.41961 -8.07724,-11.64845 -9.35168,-11.64845 -1.05931,0 -1.12312,-0.24575 -0.48672,-1.87448 0.24506,-0.62717 0.0188,-2.61097 -0.54997,-4.82218 -0.9481,-3.68587 -0.94641,-3.77061 0.0897,-4.49636 0.89423,-0.62634 0.94282,-0.85293 0.31713,-1.47863 -0.40641,-0.40641 -0.89971,-1.7444 -1.09623,-2.97331 -0.55572,-3.47532 1.40096,-5.51297 8.78076,-9.14413 4.29057,-2.11114 5.98871,-3.21986 5.98871,-3.91007 0,-0.52985 0.2659,-0.96337 0.59089,-0.96337 1.46931,0 3.83356,2.54637 7.46838,8.04364 2.16228,3.27022 4.32785,6.05646 4.81239,6.19164 0.48453,0.13519 1.66972,0.40455 2.63375,0.59857 1.46226,0.29431 1.75279,0.59632 1.75279,1.82209 0,0.97118 0.63994,2.08957 1.88761,3.29885 1.26702,1.22805 1.88762,2.32312 1.88762,3.3308 0,2.744 1.67137,6.04693 4.23099,8.36121 l 2.49287,2.25392 -1.20466,2.47954 c -0.66256,1.36375 -1.20465,3.09958 -1.20465,3.8574 v 1.37786 l -1.75279,-1.06589 c -0.98458,-0.59873 -3.6088,-1.30827 -5.98764,-1.61895 l -4.23485,-0.55307 -3.96711,2.44822 c -3.42602,2.1143 -4.22765,2.39933 -5.87737,2.08984 -1.41373,-0.26521 -1.91027,-0.63238 -1.91027,-1.41256 0,-1.34163 -0.12687,-1.3281 -2.68413,0.28623 l -2.12338,1.34043 z m 0.45584,-26.47971 c 0,-0.83894 -0.30562,-1.3483 -0.80898,-1.3483 -0.95686,0 -0.99631,0.2602 -0.25069,1.65341 0.75047,1.40226 1.05967,1.31323 1.05967,-0.30511 z"
       id="path18" />
    <path
       style="fill:#f6bad3;fill-opacity:1;stroke-width:0"
       d="m 420.34512,222.01749 c -1.51274,-0.64156 -4.11796,-2.07657 -5.78938,-3.18891 -3.37596,-2.24673 -3.87865,-2.38763 -4.32921,-1.21347 -0.42517,1.10797 -2.86812,1.02192 -3.50919,-0.1236 -0.49275,-0.8805 -0.58159,-0.87857 -1.59061,0.0346 -1.39125,1.25906 -4.72203,0.75787 -5.12176,-0.77068 -0.20509,-0.78428 -0.76013,-1.02967 -2.34174,-1.03529 -2.97799,-0.0106 -4.49735,-0.52813 -4.51702,-1.53866 -0.009,-0.4845 -0.36825,-1.34486 -0.79737,-1.91192 -0.43384,-0.57329 -0.64541,-1.56811 -0.47657,-2.24082 0.23532,-0.93759 -0.0266,-1.37305 -1.16381,-1.93525 -0.89174,-0.44082 -1.70309,-1.45995 -2.06805,-2.59767 -0.52859,-1.64783 -0.89148,-1.92869 -3.02751,-2.34324 -3.07614,-0.597 -4.47785,-1.75247 -3.75788,-3.09775 0.7266,-1.35767 0.67686,-1.48761 -0.64423,-1.68284 -0.81081,-0.11983 -1.41523,-0.85775 -1.98342,-2.42153 -0.8448,-2.32508 -2.32715,-3.41366 -4.64848,-3.41366 -1.07133,0 -1.33484,-0.35115 -1.64612,-2.19362 -0.20384,-1.20649 -0.26303,-2.3012 -0.13154,-2.43269 0.13149,-0.13149 1.27822,0.12755 2.54829,0.57566 2.35625,0.83133 8.86096,1.02245 11.33796,0.33313 0.77678,-0.21617 1.83884,-1.25584 2.51591,-2.46287 0.76754,-1.36833 2.4431,-2.90298 4.85792,-4.44939 l 3.68626,-2.36061 3.95585,0.34333 c 3.19314,0.27714 4.59693,0.71756 7.28081,2.28426 1.82872,1.0675 3.38625,1.97582 3.46117,2.01848 0.0749,0.0427 -0.30678,1.39152 -0.84823,2.99747 -1.35254,4.01166 -0.7075,6.9648 1.52129,6.9648 2.10369,0 3.88783,3.06031 3.99008,6.84412 0.0933,3.45274 1.91262,5.90259 3.68069,4.95635 0.57772,-0.30919 1.1857,-0.42687 1.35106,-0.2615 0.16537,0.16536 -0.0981,0.45368 -0.58551,0.64071 -1.33256,0.51136 -1.08367,1.00933 1.00145,2.00366 2.07289,0.98849 2.29986,1.52202 1.07864,2.53555 -1.22927,1.02019 -1.04783,1.30665 2.18869,3.45558 1.95834,1.30026 3.35196,1.8779 4.0195,1.66603 0.79539,-0.25245 1.26648,0.15524 2.12586,1.83976 0.60721,1.19024 1.10402,2.40008 1.10402,2.68853 0,0.87605 -2.24581,1.34095 -5.79767,1.20015 -2.75567,-0.10923 -3.37074,0.0204 -3.37074,0.71033 0,1.04402 -0.15967,1.02533 -3.55941,-0.41652 z"
       id="path19" />
    <path
       style="fill:#f6bad3;fill-opacity:1;stroke-width:0"
       d="m 478.37572,208.54293 c -4.10341,-2.14892 -6.10064,-3.97116 -8.09471,-7.38549 -1.15683,-1.98075 -2.96377,-4.25767 -4.01545,-5.05982 -1.71112,-1.30514 -1.9123,-1.72486 -1.91378,-3.99277 l -0.002,-2.53431 -3.96351,-1.82021 -3.96351,-1.82021 1.34992,-5.46059 c 0.74245,-3.00333 1.40977,-5.53685 1.48294,-5.63004 0.0732,-0.0932 1.80894,0.67452 3.85725,1.70604 3.38565,1.70498 3.94579,2.23519 6.16156,5.83229 l 2.43734,3.9568 3.00925,0.45786 c 2.96335,0.45087 3.02342,0.4961 3.93917,2.96625 0.51147,1.37962 1.83885,3.47917 2.94975,4.66567 l 2.01982,2.15728 -0.45208,4.58421 c -0.73456,7.44859 -0.91428,8.09023 -2.265,8.08646 -0.65396,-0.002 -1.79576,-0.32107 -2.53732,-0.70942 z"
       id="path20" />
    <path
       style="fill:#f6bad3;fill-opacity:1;stroke-width:0"
       d="m 475.64833,295.24422 c -1.50564,-1.60267 -1.99074,-1.63105 -3.50844,-0.20525 l -1.18182,1.11027 -0.3608,-1.43751 c -0.36363,-1.44883 -0.97291,-1.55748 -4.08656,-0.72869 -0.64327,0.17122 -0.84164,-0.46626 -0.96842,-3.11216 l -0.15945,-3.3275 -1.99783,-0.34839 c -1.71984,-0.2999 -2.48562,-0.98675 -5.5034,-4.93609 -1.92807,-2.52324 -4.17661,-4.98868 -4.99678,-5.47876 -1.3343,-0.7973 -2.54133,-3.32553 -2.55068,-5.34264 -0.003,-0.5676 -3.08224,-1.76134 -4.58721,-1.77813 -0.29663,-0.003 -1.44942,-0.25877 -2.56177,-0.56768 -1.71462,-0.47617 -2.02244,-0.78885 -2.02244,-2.05438 0,-1.17752 -0.40221,-1.68451 -1.9048,-2.40105 -1.04764,-0.49959 -2.11002,-1.45463 -2.36084,-2.12233 -0.40225,-1.07085 -0.24123,-1.26802 1.36548,-1.67207 2.18272,-0.54889 2.23843,-0.95492 0.45234,-3.2966 -1.301,-1.7057 -1.34184,-1.96488 -0.82011,-5.20449 0.52896,-3.28455 0.49807,-3.46262 -0.84352,-4.86295 -1.19095,-1.24308 -1.34092,-1.75939 -1.03572,-3.56586 0.26711,-1.58102 0.1454,-2.28784 -0.48389,-2.8101 -1.18325,-0.98201 -1.04473,-2.49094 0.34775,-3.78823 0.65368,-0.609 1.22912,-1.77125 1.27875,-2.58277 0.0496,-0.81153 0.12153,-1.90022 0.15978,-2.41931 0.0447,-0.60702 0.51503,-0.94381 1.31795,-0.94381 0.90388,0 1.50562,0.53936 2.18039,1.95438 1.08165,2.26825 1.38907,2.1092 2.54809,-1.31837 0.67799,-2.005 1.36026,-2.83792 3.3199,-4.05294 1.89599,-1.17556 2.69704,-1.40595 3.46302,-0.99601 0.72504,0.38803 1.50222,0.27177 2.85307,-0.42678 l 1.85659,-0.96008 2.38736,2.8999 c 1.31304,1.59494 2.58286,2.8999 2.82181,2.8999 0.23895,0 0.59945,-1.32054 0.8011,-2.93453 0.35503,-2.84155 0.2805,-3.07653 -2.3521,-7.41564 l -2.71875,-4.4811 3.60438,-0.26966 c 2.93116,-0.21929 4.07539,-0.59674 6.12617,-2.02085 1.38699,-0.96316 2.85399,-1.62373 3.26,-1.46792 0.40602,0.1558 1.63548,2.09663 2.73215,4.31296 1.09667,2.21632 2.32945,4.02968 2.73953,4.02968 0.41007,0 1.80612,-0.37418 3.10234,-0.83151 2.15736,-0.76116 2.52858,-0.75402 4.38785,0.0844 1.11711,0.50374 2.21065,0.73941 2.43009,0.52371 0.21945,-0.2157 0.78215,-1.52782 1.25045,-2.91581 0.74318,-2.20275 1.1032,-2.58715 2.83142,-3.02323 1.6884,-0.42604 1.97997,-0.72137 1.97997,-2.00552 0,-1.1594 -0.19873,-1.42965 -0.86367,-1.17449 -0.62671,0.24049 -0.81168,0.0636 -0.67415,-0.64483 0.12083,-0.62242 1.1669,-1.30299 2.88612,-1.87772 1.64944,-0.5514 2.76677,-1.26279 2.87731,-1.83196 0.16421,-0.84551 0.82918,-0.89978 7.2808,-0.59418 6.96332,0.32985 7.07152,0.31769 5.61696,-0.6313 -0.81572,-0.53219 -1.48313,-1.13231 -1.48313,-1.3336 0,-0.20129 0.72789,-1.90461 1.61753,-3.78515 1.78485,-3.77283 1.96577,-5.44121 0.80941,-7.46405 -1.01705,-1.77914 -1.02708,-3.77523 -0.019,-3.77523 0.4345,0 1.04994,0.48571 1.36765,1.07936 0.64462,1.20447 4.27068,3.16447 8.35906,4.51832 2.22209,0.73584 3.00502,1.3647 4.44938,3.57388 0.96403,1.47451 1.75278,3.00655 1.75278,3.40454 0,0.398 -0.58085,2.15131 -1.29077,3.89626 -1.47354,3.62189 -2.98225,4.71459 -4.55024,3.29557 -1.40361,-1.27025 -1.70945,-1.12139 -1.70945,0.83202 0,0.99369 0.61573,2.61229 1.45375,3.82155 1.27082,1.83381 1.65233,2.05805 3.03201,1.78211 1.21991,-0.24398 1.45362,-0.16266 1.02926,0.35816 -0.84627,1.03867 -1.73661,4.71871 -1.14162,4.71871 0.28117,0 1.95355,-0.72808 3.71638,-1.61795 3.86992,-1.95354 4.10918,-1.97032 4.52405,-0.31736 0.25091,0.99969 0.80466,1.38141 2.39341,1.64982 1.77694,0.30022 2.22949,0.6837 3.22506,2.73289 0.63694,1.31101 1.01915,2.74569 0.84936,3.18816 -0.20914,0.545 0.30807,1.09863 1.60346,1.71635 l 1.91217,0.91185 -1.72574,3.14253 c -1.0792,1.96518 -2.07933,3.14492 -2.66954,3.14892 -1.1482,0.008 -1.19923,0.7321 -0.16329,2.31748 0.6955,1.06438 0.67225,1.33769 -0.21349,2.50916 -0.96991,1.28281 -0.96662,1.37101 0.13593,3.6404 0.95,1.95537 1.38163,2.32573 2.71056,2.32573 1.57961,0 1.58038,0.002 1.19947,2.56177 -0.20964,1.40897 -0.51047,3.48325 -0.66852,4.6095 -0.24534,1.74828 -0.52211,2.09469 -1.89261,2.36879 -2.21449,0.4429 -2.34623,1.24058 -0.73123,4.42763 0.76677,1.51316 1.26388,2.75119 1.10467,2.75119 -0.1592,0 -1.25541,-0.60978 -2.43602,-1.35506 -1.44308,-0.91098 -2.14656,-1.12307 -2.14656,-0.64718 0,0.38933 0.27009,0.97796 0.6002,1.30807 0.78382,0.78383 0.14814,1.77281 -1.13952,1.77281 -1.44949,0 -1.78381,0.85591 -0.88934,2.27687 0.85007,1.35042 0.84664,3.75976 -0.006,4.04389 -0.29732,0.0991 -0.86434,-0.80077 -1.26003,-1.99974 -0.50927,-1.54309 -0.96918,-2.11344 -1.57426,-1.95231 -3.27988,0.87341 -3.99568,0.87636 -4.94156,0.0204 -0.73125,-0.66178 -1.4978,-0.80466 -2.90283,-0.54107 -1.05005,0.19699 -1.90918,0.54225 -1.90918,0.76725 0,0.22499 0.84651,1.22955 1.88113,2.23235 1.73169,1.67842 1.81387,1.89762 1.03435,2.75897 -0.47014,0.5195 -0.76711,1.59846 -0.66767,2.42574 0.15517,1.29083 -0.0591,1.55208 -1.60272,1.95399 -1.41088,0.36735 -1.71509,0.67428 -1.46119,1.47424 0.53531,1.68663 -0.79645,1.84739 -2.41982,0.2921 -1.74893,-1.67558 -2.16404,-1.53481 -4.34271,1.47277 -1.10794,1.52946 -1.48082,2.54887 -1.25761,3.4382 0.25255,1.00622 0.02,1.39961 -1.14005,1.92814 -1.19853,0.54608 -2.08505,0.49937 -4.99192,-0.26304 -3.7794,-0.99126 -4.6253,-0.86011 -3.25977,0.5054 0.77862,0.77862 0.77579,0.99661 -0.0321,2.48087 -0.6958,1.2783 -0.73634,1.682 -0.18907,1.88257 0.53365,0.19559 0.55035,0.43163 0.0714,1.00877 -0.34391,0.41438 -0.50635,1.37564 -0.36097,2.13613 0.21371,1.11795 0.0968,1.31179 -0.61068,1.01238 -2.33643,-0.98881 -3.03751,-0.81129 -4.31527,1.09261 -0.70564,1.05143 -1.5922,1.91169 -1.97013,1.91169 -0.37793,0 -1.40894,-0.89973 -2.29114,-1.99941 l -1.60398,-1.99941 -2.22356,1.00268 c -1.22859,0.55402 -2.22355,1.37974 -2.22355,1.84532 0,0.74629 -0.10134,0.74131 -0.88623,-0.0436 -0.82209,-0.8221 -1.07122,-0.81332 -3.44236,0.1213 l -2.55614,1.00753 z"
       id="path21" />
    <path
       style="fill:#f6bad3;fill-opacity:1;stroke-width:0"
       d="m 529.88066,191.92927 c -0.88988,-0.28314 -2.89042,-0.60612 -4.44566,-0.71773 -2.44301,-0.17533 -3.22625,-0.54343 -5.75736,-2.70583 -1.61132,-1.3766 -3.56156,-3.33134 -4.33385,-4.34387 l -1.40418,-1.84097 1.09421,-1.0942 c 1.33166,-1.33167 1.36264,-2.11267 0.182,-4.5885 -0.70088,-1.46975 -1.38807,-2.03624 -2.96625,-2.44523 -6.41071,-1.66134 -5.98853,-1.39803 -7.9314,-4.9469 -1.76124,-3.2171 -1.79268,-3.37363 -0.80898,-4.02703 3.23085,-2.146 3.12167,-1.76069 1.62527,-5.73626 -0.74933,-1.9908 -1.11673,-3.61964 -0.81643,-3.61964 1.16609,0 5.63576,1.25093 6.14715,1.72041 0.34901,0.3204 0.0636,0.8567 -0.80897,1.51983 l -1.3483,1.02471 3.10108,3.14153 c 2.15644,2.18456 3.10108,3.56388 3.10108,4.52805 0,1.14102 0.8108,1.9261 4.57892,4.43374 2.78395,1.85268 5.16239,3.04856 6.06734,3.05066 1.02869,0.002 3.01944,1.21008 6.44527,3.91006 2.72627,2.14864 5.10768,4.26929 5.29201,4.71256 0.20407,0.49073 -0.18016,1.229 -0.98242,1.88762 -1.54384,1.26742 -3.06428,4.06543 -3.06428,5.63909 0,1.2011 -0.49504,1.2842 -2.96625,0.4979 z"
       id="path22" />
    <path
       style="fill:#f6bad3;fill-opacity:1;stroke-width:0"
       d="m 534.2658,189.11095 c 0.47416,-0.99433 1.56236,-2.22152 2.41821,-2.72708 2.71286,-1.60253 2.2347,-2.42113 -4.57875,-7.83869 -3.1945,-2.54003 -5.25898,-3.80591 -6.20696,-3.80591 -0.8257,0 -3.28137,-1.24591 -5.86501,-2.97567 -3.73514,-2.5007 -4.44458,-3.20819 -4.44458,-4.43242 0,-1.0279 -0.83355,-2.31432 -2.83142,-4.36979 -1.74787,-1.79824 -2.57344,-3.00868 -2.15728,-3.16298 0.37078,-0.13747 0.67415,-0.70688 0.67415,-1.26535 0,-0.55847 0.41158,-1.87849 0.91463,-2.93338 l 0.91462,-1.91799 2.81923,2.78422 c 2.65614,2.62314 2.94021,2.76486 4.91038,2.44982 2.06177,-0.32969 2.10298,-0.30235 2.93463,1.9469 0.70651,1.91081 1.0573,2.25874 2.16005,2.14246 0.87888,-0.0927 1.83316,0.40039 2.87049,1.48313 1.88909,1.97178 2.30972,2.01054 2.97008,0.27365 0.30582,-0.80436 0.93849,-1.34829 1.56827,-1.34829 1.16388,0 1.88085,-1.54273 1.83778,-3.9544 -0.015,-0.84011 0.2769,-1.64419 0.64867,-1.78685 0.83112,-0.31893 4.68434,1.67628 4.19068,2.16995 -0.19535,0.19535 0.5884,1.3215 1.74167,2.50256 1.42656,1.46093 2.56469,2.14737 3.56037,2.14737 0.96491,0 1.84594,0.5053 2.58599,1.48313 l 1.12248,1.48313 1.34944,-1.5132 c 0.75927,-0.85141 1.34945,-2.17474 1.34945,-3.02581 0,-0.83194 0.15433,-2.6386 0.34296,-4.01482 0.26081,-1.90283 0.57115,-2.50221 1.29554,-2.50221 0.57907,0 1.17967,-0.65145 1.53176,-1.66145 l 0.57918,-1.66144 2.58975,3.14457 c 6.93401,8.41954 6.5869,7.84231 6.07654,10.10513 -0.62668,2.77867 -1.4129,3.51903 -2.36062,2.22294 -0.82679,-1.1307 -0.55523,-1.25433 -8.58996,3.91081 l -3.65838,2.3518 1.63593,2.85931 c 1.93184,3.37651 2.07776,4.94204 0.50708,5.44055 -0.95882,0.30432 -1.07616,0.63914 -0.77903,2.22295 l 0.34981,1.86467 -1.70293,-0.88062 c -1.62172,-0.83863 -1.75984,-0.82716 -2.89613,0.24032 -0.85167,0.80011 -1.9042,1.12095 -3.67734,1.12095 -2.32165,0 -2.5074,0.10584 -2.83952,1.61796 -0.34591,1.57492 -0.44006,1.61795 -3.53969,1.61795 h -3.18434 z"
       id="path23" />
    <path
       style="fill:#f6bad3;fill-opacity:1;stroke-width:0"
       d="m 579.17995,248.04531 c -0.41833,-0.26482 -1.73138,-0.48587 -2.91788,-0.49121 -1.92896,-0.009 -2.27143,-0.22063 -3.23591,-2.00264 -0.79279,-1.46478 -1.57888,-2.11629 -2.96626,-2.45846 -6.06162,-1.49495 -5.9325,-1.42771 -5.9325,-3.0897 0,-1.3161 0.56678,-1.97436 3.50557,-4.07144 1.92806,-1.37584 3.50557,-2.74275 3.50557,-3.03757 0,-0.29482 -0.87332,-1.60182 -1.94072,-2.90444 -1.37601,-1.67923 -2.48762,-2.47099 -3.82023,-2.72099 -1.58826,-0.29796 -1.83189,-0.53003 -1.57221,-1.4976 0.16901,-0.62975 0.3106,-2.30634 0.31465,-3.72575 0.007,-2.37382 0.0901,-2.53645 1.03938,-2.02842 0.89442,0.47868 1.39792,0.0588 3.77631,-3.14952 2.0619,-2.78135 3.06537,-3.70184 4.03556,-3.70184 0.71019,0 2.08181,-0.39438 3.04803,-0.87639 2.20391,-1.09946 2.13197,-1.11089 2.12211,0.33707 -0.005,0.66741 1.62616,4.56397 3.6238,8.65903 4.18608,8.58126 4.12888,8.90308 -1.29324,7.27641 -1.92501,-0.57752 -3.62555,-0.9245 -3.77897,-0.77108 -0.5427,0.5427 2.08635,3.5791 3.3801,3.90381 1.5124,0.37959 1.5473,0.54383 0.50351,2.36975 -0.46859,0.81972 -0.77825,2.89544 -0.78987,5.2947 -0.0178,3.68275 0.0517,3.92392 1.04156,3.60976 0.81893,-0.25991 1.13786,-0.0291 1.39931,1.01257 0.18624,0.74207 0.72271,1.42327 1.19215,1.51377 0.57266,0.11041 0.14066,0.63628 -1.31284,1.59812 -1.47229,0.97426 -2.41006,1.27929 -2.92698,0.95206 z"
       id="path24" />
    <path
       style="fill:#f6bad3;fill-opacity:1;stroke-width:0"
       d="m 407.6784,298.08718 -5.17009,-7.12472 1.4705,-0.89988 c 0.80877,-0.49494 2.04045,-1.91401 2.73708,-3.15349 l 1.2666,-2.2536 2.56056,0.33967 c 1.83576,0.24353 3.03137,0.0962 4.22386,-0.52046 l 1.6633,-0.86012 -0.3667,2.5953 -0.3667,2.5953 1.22422,-1.18024 c 1.21902,-1.17521 1.23273,-1.1759 3.22006,-0.16204 l 1.99582,1.0182 1.52403,-1.59075 c 2.08287,-2.17405 3.01426,-2.11159 2.36321,0.15849 -0.643,2.24202 -0.66844,2.15162 0.50099,1.78046 1.5715,-0.49878 2.85393,0.21823 2.48264,1.38805 -0.24203,0.76258 -0.054,1.01477 0.75657,1.01477 0.60497,0 1.22897,0.47366 1.42098,1.07863 0.18829,0.59326 0.67368,1.07864 1.07864,1.07864 0.40496,0 0.89034,0.48539 1.07863,1.07864 0.18829,0.59325 0.81138,1.07864 1.38464,1.07864 0.75224,0 1.0423,0.37521 1.0423,1.34829 0,1.09397 0.26566,1.3483 1.40832,1.3483 1.335,0 1.38865,0.10528 1.03054,2.02245 -0.20778,1.11234 -0.44546,2.09153 -0.52817,2.17598 -0.0827,0.0845 -1.1705,-0.0757 -2.41731,-0.35581 -1.4021,-0.31503 -2.92094,-0.31852 -3.98124,-0.009 -1.49941,0.4375 -1.85206,0.32998 -2.8132,-0.85766 -0.6044,-0.74682 -1.3453,-1.35785 -1.64645,-1.35785 -0.30115,0 -3.36313,1.21346 -6.80439,2.69659 -3.44127,1.48313 -6.46211,2.68703 -6.713,2.67534 -0.25088,-0.0117 -2.78269,-3.22737 -5.62624,-7.14597 z"
       id="path25" />
  </g>
  <g
     id="g3047">
    <rect
       fill="white"
       opacity="0.75"
       x="4"
       y="320"
       width="286"
       height="36"
       id="rect3049" />
    <rect
       fill="black"
       x="8"
       y="324"
       width="278"
       height="8"
       id="rect3051" />
    <text
       fill="#000000"
       text-anchor="middle"
       font-size="24px"
       font-family="sans-serif"
       x="147"
       y="352"
       id="text3053"
       style="line-height:0%">50km</text>
  </g>
</svg>
