<?xml version="1.0" encoding="UTF-8" standalone="no"?>
<svg
   width="628"
   height="360"
   version="1.1"
   id="svg3023"
   inkscape:version="1.4 (86a8ad7, 2024-10-11)"
   sodipodi:docname="包括自治体区画図_11000_noborder.svg"
   xmlns:inkscape="http://www.inkscape.org/namespaces/inkscape"
   xmlns:sodipodi="http://sodipodi.sourceforge.net/DTD/sodipodi-0.dtd"
   xmlns="http://www.w3.org/2000/svg"
   xmlns:svg="http://www.w3.org/2000/svg"
   xmlns:rdf="http://www.w3.org/1999/02/22-rdf-syntax-ns#"
   xmlns:cc="http://creativecommons.org/ns#"
   xmlns:dc="http://purl.org/dc/elements/1.1/">
  <metadata
     id="metadata3059">
    <rdf:RDF>
      <cc:Work
         rdf:about="">
        <dc:format>image/svg+xml</dc:format>
        <dc:type
           rdf:resource="http://purl.org/dc/dcmitype/StillImage" />
        <dc:title>埼玉県行政区画地図 (2010年3月23日)</dc:title>
      </cc:Work>
    </rdf:RDF>
  </metadata>
  <defs
     id="defs3057" />
  <sodipodi:namedview
     pagecolor="#ffffff"
     bordercolor="#666666"
     borderopacity="1"
     objecttolerance="10"
     gridtolerance="10"
     guidetolerance="10"
     inkscape:pageopacity="0"
     inkscape:pageshadow="2"
     inkscape:window-width="1920"
     inkscape:window-height="1094"
     id="namedview3055"
     showgrid="false"
     inkscape:zoom="1.8541911"
     inkscape:cx="364.04015"
     inkscape:cy="154.24516"
     inkscape:window-x="-11"
     inkscape:window-y="-11"
     inkscape:window-maximized="1"
     inkscape:current-layer="g3031"
     inkscape:showpageshadow="2"
     inkscape:pagecheckerboard="0"
     inkscape:deskcolor="#d1d1d1" />
  <title
     id="title3025">埼玉県行政区画地図 (2010年3月23日)</title>
  <desc
     id="desc3027">Author: Lincun</desc>
  <g
     stroke="black"
     stroke-width="0.2"
     stroke-linejoin="round"
     id="g3031">
    <path
       fill="#cccccc"
       d="M616-1l2 1-2 4-4 2-2-2h-3l3-3-1-2h-25l-6 10 3 11-5 7-2 10-3 5-18 8-12 5-15 10-2 1v-2l-3-2v-2h-2v1h-5v5l-4-1v-2h-3l-2 3v2v1l3 4-2 10 4 14 2 4 4 6 1 5 7 8v4l1 11 2 2h7l11 4 2-1v-4l2-1v-1l1-4 4-4 7 7 5 16 5 6 11 12 8 6 9 11 5 15 14 9 5 1 6 1v1v-212zM629 218l-2 3 2 3zM609-1l1 2-3 3h3l2 2 4-2 2-4-2-1zM371-1l1 2 3 1-1 1 2 2v3l2 2 2-2 2 2 1 3 6-1 3 3 3 4h-3l-2 1 5 4h2l-1-3 2-1 3 3 4-2 2 1 4-2 1-3 5 2 6-4 3 2 2 2 1-2 4 4 2-3 3 1-1 3 4 4 14-1h10l4-3 8 1 2 5 3-2v1l-6 7 6 8-1 3 2-3 2 2 1-1 2 3v2h4l-2 2v4l3-1 1 2 2 4-3 4 5-1 1 4 2 1 3-2 1 3v-2l2-3h3v2l4 1v-5h5v-1h2v2l3 2v2l2-1 15-10 12-5 18-8 3-5 2-10 5-7-3-11 6-10zM-1 183h1l5 13 12 4 2-5 5-1 4-4 1-3 3-3 3-4 3-11 9-2 4 1 5 5 3-2 16-3v-3l1-1 1-3 5-5 2-6 6-2 5-6 9-3 6-4h6l3-2 7 4 6-4 7-7v-3l2-9 2-1 3 1 3 5 5 1 4-6h3l3-3-1-2 3 1 3-2 2 2 2-2 1 3 3 2 4-1 1-12 3-3h7v-2l1-2-3-4-1-11 4-2v-7l8-10 8-15 8-13-2-1 5-5 6-9 3 3h14l3 2 1 1 13 7h4l3 2v2l6-1 6 6 4 2 5-1 6 2v-5l3 1 3 1 10 3 3-1 2 6 6 3 4-1v-4v-1l6-2 3-7h2l2 2 2-1 5 4 4 1 3 4 4 6 9 3 4 4 2 4 4 1 8 8 10 4 15-2h1l17 1 29-12 6 3 5 5 7 7 2-6 11-1v-9l5-2 2 2-2 2 2 1 3-4-2-4-1-2-3 1v-4l2-2h-4v-2l-2-3-1 1-2-2-2 3 1-3-6-8 6-7v-1l-3 2-2-5-8-1-4 3h-10l-14 1-4-4 1-3-3-1-2 3-4-4-1 2-2-2-3-2-6 4-5-2-1 3-4 2-2-1-4 2-3-3-2 1 1 3h-2l-5-4 2-1h3l-3-4-3-3-6 1-1-3-2-2-2 2-2-2v-3l-2-2 1-1-3-1-1-2h-372zM629 223l-1-3 1-2v-7l-1-2h-5h-4l-8-4-7-6-5-15-9-11-8-6-11-12-5-6-5-16-7-7-4 4-1 4v1l3 12 4 6 9 11 4 4 1 3-2 6 2 12-2 4 7 8-1 7 4 2 1 5 7 14 7 5 6 11 8 12 4 16 1 3-5 12-1 8v4l2 3-2 15 3 7v3l-6 3-1 3 5 11h1l5 6-2 8 1 2h17zM612 361l-1-2 2-8-5-6h-1l-5-11 1-3 6-3v-3l-3-1-6 2-2-4 2-3-1-3-8 2-1 2-5-3-4-3-6 5-3-3v-2l2-6-2-3v3l-3 1h-6l-2 2-9-1-4-6h-2l-4 3h-2l-3 2 5 7v2l-3 5h-4v2l-4 2v-5l-2-1-5 2-2-3h-7l-4-4h-1l-3-2-6 2-10-1-6 1h-3l-1 5-7 6v1l-1 7-3 1-1-3-8 1v-2l3-1-4-2-1-1h-3l-3 5-7 3 1 2-4 1-4 2v2l-4 1-1-1 1-12-15 6 3-4 5-2 5-3v-5l-3-3 4-3 1-3-3-3-9 11h-5v2l-7 2-1 2-1-1-3 1-3-1-5 3-6 2-2 2-8 2-2-2-1 2-7-1-1 1-8-2-3 3-3 1v-2l-4 1-2-2-1-1 1-1 1-2-2-3-4 1 2-1-3-4 1-4-10-1-2-1-7 2-1-1-3-2-5-11 1-2-1-4-5 1-1-7h-4l-2-2-3 1-2-3-2 1-8 2-4-1-5 1-2-3-4 3-9-7-3 1-2 3-7-1-12-5h-1l-2-4-6-4-23-2-5-2-4-3h-4v1l-3 1-10-5-6-6-9-6-4 1-5 8-8 2-3-3-6 4-11 7v2l-1 3v3l2 3v4l3 4 5 5 3-1v15l3 9 5 6-1 8 4 9 4 3h3l3 6v1l1 1 4 7zM171 361l-4-7-1-1v-1l-3-6h-3l-4-3-4-9 1-8-5-6-3-9v-15l-3 1-5-5-3-4v-4l-2-3-6 2-3 2-7-3-7 4-2 4-1-1-3-3-4-1-4-6-4-1-1 1-2-4-4-2-4 2-4 1-3-2h-1l-5 2-3-5-8-3-1-11-6-4h-7l-5-2-2 1-6-3-2 1-3-3-10-1-6 7h-1l-1 2-3 2v1l-4 10v93zM-1 268l4-10v-1l3-2 1-2h1l6-7 10 1 1-4-1-1 2-1 3-5 1-8-4-3-2-8-3-1-2-3-2-1-1-4 1-8-12-4-5-13h-1z"
       id="path3033" />
    <path
       style="fill:#f6bad3;fill-opacity:1;stroke-width:0"
       d=""
       id="path28" />
    <path
       style="fill:#f6bad3;fill-opacity:1;stroke-width:0"
       d=""
       id="path29" />
    <path
       style="fill:#f6bad3;fill-opacity:1;stroke-width:0"
       d=""
       id="path30" />
    <path
       style="fill:#f6bad3;fill-opacity:1;stroke-width:0"
       d=""
       id="path36" />
    <path
       style="fill:#f6bad3;fill-opacity:1;stroke-width:0"
       d="m 434.66605,343.34142 c -0.14688,-0.14689 -0.0521,-2.9644 0.21071,-6.26113 0.26277,-3.29673 0.36998,-6.10183 0.23825,-6.23357 -0.13173,-0.13173 -3.19337,0.95499 -6.80363,2.41493 -3.61027,1.45995 -6.56413,2.47194 -6.56413,2.24888 0,-0.73695 2.39562,-2.56444 4.31455,-3.29136 1.03819,-0.39328 3.16176,-1.46003 4.71904,-2.37056 2.81281,-1.64462 2.83142,-1.6731 2.83142,-4.33141 0,-2.14158 -0.27783,-2.96592 -1.3914,-4.12823 l -1.3914,-1.45231 1.89613,-1.44625 c 2.68216,-2.04578 3.06816,-4.22934 1.10911,-6.27416 -0.82658,-0.86276 -1.653,-1.56866 -1.83649,-1.56866 -0.18348,0 -2.26164,2.41458 -4.61814,5.36573 l -4.28452,5.36572 -2.57511,0.0275 c -2.20438,0.0235 -2.64549,0.21255 -3.0639,1.31305 -0.36828,0.96866 -1.16766,1.44844 -3.24265,1.94622 -1.51463,0.36336 -3.12513,1.03191 -3.57889,1.48567 -0.57358,0.57358 -2.0057,0.84336 -4.69895,0.8852 -3.04256,0.0473 -4.3369,0.33541 -6.03121,1.34269 -1.1865,0.70539 -3.48051,1.74066 -5.09781,2.3006 -1.61728,0.55994 -3.43748,1.46574 -4.04489,2.01289 -0.60739,0.54714 -2.77272,1.40305 -4.81184,1.902 -3.52158,0.8617 -3.76065,0.85908 -4.76775,-0.0523 -0.96253,-0.87107 -1.1181,-0.88043 -1.68769,-0.10147 -0.50628,0.69239 -1.56632,0.83396 -5.49062,0.7333 -2.67476,-0.0686 -6.24136,-0.43316 -7.92578,-0.81011 l -3.06258,-0.68538 -1.93357,1.6977 c -2.10354,1.84693 -3.23298,2.12926 -3.69556,0.92379 -0.23799,-0.6202 -0.68908,-0.66562 -2.27146,-0.22871 -1.71817,0.47441 -2.13551,0.39391 -3.21495,-0.62017 -1.19303,-1.12079 -1.20634,-1.22483 -0.348,-2.7208 0.83151,-1.44922 0.83063,-1.65788 -0.0128,-3.05531 -0.49789,-0.82493 -1.39029,-1.5751 -1.98311,-1.66705 -0.59283,-0.092 -1.722,-1.01169 -2.50928,-2.04387 -1.20345,-1.57781 -1.37452,-2.21344 -1.07415,-3.99127 0.41115,-2.4336 0.48978,-2.39391 -5.93254,-2.99403 -2.07637,-0.19403 -4.22279,-0.59125 -4.76981,-0.88272 -0.69662,-0.37118 -2.01741,-0.25307 -4.4088,0.39425 -3.39172,0.91809 -3.42735,0.91608 -5.40517,-0.30628 -2.86845,-1.7728 -6.32881,-9.16268 -6.45328,-13.78151 -0.11735,-4.35452 -0.3991,-4.72502 -3.26625,-4.29506 l -2.33336,0.34991 -0.33581,-2.05102 c -0.86164,-5.26267 -0.71801,-5.01728 -2.93652,-5.01728 -1.20698,0 -2.33822,-0.34923 -2.75398,-0.85019 -0.49913,-0.60142 -1.21246,-0.75511 -2.43774,-0.52524 -1.42677,0.26766 -1.90826,0.0892 -2.73118,-1.01241 l -0.99905,-1.33736 -3.23591,1.13887 c -2.50234,0.88069 -4.67777,1.15941 -9.59623,1.2295 -6.23091,0.0888 -6.38056,0.0629 -7.35468,-1.27439 l -0.99435,-1.36502 -1.98517,1.51416 -1.98516,1.51416 -4.35679,-3.3365 c -3.88255,-2.97331 -4.55173,-3.29993 -6.14752,-3.00056 -1.2069,0.22641 -2.09883,0.85752 -2.73577,1.93577 -0.90091,1.52512 -1.07174,1.58417 -3.65846,1.26465 -1.49237,-0.18434 -5.90839,-1.58115 -9.81337,-3.104 -6.25962,-2.44112 -7.19795,-2.97174 -7.92788,-4.48314 -0.46328,-0.95929 -2.22709,-2.66447 -4.00487,-3.87173 l -3.17696,-2.15743 -10.73757,-0.8907 c -12.04734,-0.99935 -15.40998,-1.78404 -18.82754,-4.39355 -1.88092,-1.43618 -2.86298,-1.80355 -4.82133,-1.80355 -1.35261,0 -2.45929,0.25051 -2.45929,0.5567 0,0.30618 -0.54606,0.7609 -1.21347,1.01049 -1.90958,0.71412 -10.75066,-3.97358 -14.15712,-7.50636 -1.48312,-1.53813 -4.78554,-4.21174 -7.3387,-5.94135 -4.53978,-3.07545 -4.69077,-3.13241 -6.85004,-2.58433 -1.94807,0.49447 -2.47371,1.0003 -4.46599,4.29762 -2.5385,4.20138 -2.7765,4.38012 -7.1105,5.34023 -3.06781,0.67961 -3.13626,0.66832 -4.63055,-0.7633 l -1.51671,-1.4531 -8.66342,5.54415 c -9.48679,6.07105 -8.65591,5.07576 -9.63785,11.54488 -0.3107,2.04693 -0.51669,2.27834 -2.56727,2.88405 -1.22622,0.36221 -3.13792,1.16401 -4.24823,1.7818 l -2.01875,1.12324 -3.53759,-1.45278 -3.53759,-1.45278 -3.6736,2.14549 c -2.54143,1.48428 -3.88256,2.65 -4.35165,3.78248 -0.37294,0.90034 -0.8437,1.63698 -1.04615,1.63698 -0.20246,0 -1.16998,-0.82733 -2.15006,-1.83851 -1.00538,-1.03729 -2.55912,-1.98431 -3.56528,-2.17307 -1.378715,-0.25865 -2.167577,-0.93337 -3.476983,-2.9739 -2.21515,-3.45202 -2.757828,-3.85266 -5.494995,-4.0568 -1.950975,-0.14551 -2.416978,-0.41834 -3.070088,-1.79739 -0.468501,-0.98925 -1.602429,-2.00122 -2.896023,-2.58455 -1.836688,-0.82823 -2.358624,-0.86303 -3.834972,-0.25566 -5.664367,2.33031 -6.119245,2.39419 -7.919793,1.11209 l -1.678904,-1.1955 -2.837529,1.08587 -2.837523,1.08586 -1.297124,-2.3745 c -1.162999,-2.12897 -1.716435,-2.53386 -5.352262,-3.91564 l -4.055136,-1.54114 -0.539319,-5.47635 -0.539319,-5.47636 -3.235912,-2.14735 c -2.974122,-1.97362 -3.531828,-2.14748 -6.893636,-2.14906 -2.063892,-9.6e-4 -4.520796,-0.36233 -5.63841,-0.8293 -1.116682,-0.46658 -2.618029,-0.6876 -3.441763,-0.50667 -0.998997,0.21942 -2.339066,-0.12401 -4.237232,-1.08588 -1.731718,-0.87753 -3.186776,-1.27646 -3.867601,-1.06037 -0.72956,0.23155 -1.505,-0.0421 -2.338729,-0.82535 -1.073515,-1.00852 -1.177896,-1.42307 -0.74923,-2.97557 0.27393,-0.99209 0.431141,-2.00923 0.349359,-2.2603 -0.08178,-0.25108 0.353903,-0.99699 0.968188,-1.65758 1.944252,-2.09081 3.342992,-5.6656 3.736977,-9.55068 l 0.381447,-3.76145 -1.975734,-1.65873 c -1.625093,-1.36435 -2.141672,-2.32394 -2.910725,-5.40697 -0.814205,-3.26403 -1.148215,-3.84353 -2.585579,-4.48587 -0.907825,-0.40569 -2.05508,-1.42237 -2.549457,-2.25928 -0.494377,-0.83691 -1.351664,-1.66537 -1.905084,-1.84102 -1.567064,-0.49737 -2.079312,-3.68648 -1.388597,-8.64504 0.330554,-2.373 0.995056,-5.21945 1.476671,-6.32545 0.760663,-1.74681 1.177023,-2.05909 3.170337,-2.37783 2.670204,-0.42698 6.619069,-3.70348 7.186042,-5.96248 0.195184,-0.77767 1.683206,-2.8818 3.306715,-4.67584 2.13052,-2.35429 3.175124,-4.05549 3.754344,-6.11414 0.441379,-1.56875 1.178861,-4.18816 1.638848,-5.82091 0.631351,-2.24102 1.124434,-3.03482 2.011748,-3.23864 9.065594,-2.08242 9.76168,-1.99871 13.292078,1.59851 1.319921,1.3449 2.699494,2.44527 3.065717,2.44527 0.366223,0 1.468486,-0.45478 2.449474,-1.01064 0.980987,-0.55585 4.817281,-1.54611 8.525097,-2.20058 8.981658,-1.58535 8.6291,-1.45195 8.6291,-3.26511 0,-0.85239 0.215808,-1.68316 0.479573,-1.84618 0.263765,-0.16302 0.64358,-0.96609 0.844028,-1.78462 0.200449,-0.81852 1.493342,-2.64202 2.873097,-4.05222 1.632275,-1.66829 2.891762,-3.63233 3.605351,-5.62217 1.067312,-2.9762 1.178207,-3.08523 4.136855,-4.06729 2.500514,-0.82999 3.456543,-1.53094 5.386015,-3.94896 2.138679,-2.68019 2.727572,-3.06445 6.667592,-4.35076 2.376946,-0.77601 5.794806,-2.35431 7.595236,-3.50735 2.74375,-1.75715 3.734,-2.09643 6.11895,-2.09643 1.67539,0 3.46454,-0.36571 4.35103,-0.88937 1.46449,-0.8651 1.60043,-0.83632 4.98077,1.05406 l 3.47519,1.94344 2.92256,-1.9294 c 4.49596,-2.96813 10.20065,-8.78119 10.21721,-10.41132 0.028,-2.76042 2.09385,-10.5094 2.9731,-11.15232 1.38442,-1.01231 3.04194,-0.0955 4.83318,2.67336 1.80893,2.79621 1.89105,2.84885 5.1894,3.32635 l 2.36106,0.3418 1.88761,-2.99223 c 1.61863,-2.56584 2.12301,-2.99263 3.5395,-2.99502 1.86605,-0.003 4.93795,-2.71443 4.28059,-3.77807 -0.25424,-0.41137 -0.0244,-0.56557 0.6683,-0.44832 0.58071,0.0983 1.697,-0.16439 2.48065,-0.58376 1.27158,-0.68048 1.54138,-0.65698 2.50869,0.21842 1.02176,0.92468 1.14199,0.92831 2.09778,0.0633 0.96263,-0.87117 1.02968,-0.85468 1.32609,0.32634 0.47094,1.87638 3.16495,3.24973 5.5113,2.80955 2.375,-0.44555 2.66621,-1.14064 3.13888,-7.49228 0.31412,-4.22109 0.54018,-5.02522 1.77506,-6.314151 1.21757,-1.270861 1.91009,-1.499047 4.96124,-1.634707 l 3.54614,-0.15767 0.4607,-2.338815 c 0.40313,-2.046504 0.29079,-2.585753 -0.89877,-4.31455 -0.85887,-1.248194 -1.47834,-3.068023 -1.68226,-4.941988 -0.17753,-1.631439 -0.44676,-3.986072 -0.59828,-5.232514 -0.26771,-2.202167 -0.21367,-2.29781 1.91094,-3.381706 l 2.18645,-1.115441 v -3.567803 -3.567809 l 3.94184,-4.915502 c 2.31632,-2.888464 5.46875,-7.806734 7.64453,-11.926646 2.03648,-3.856129 5.62805,-10.150298 7.98126,-13.987042 3.72796,-6.078151 4.1693,-7.055808 3.4294,-7.596836 -0.74065,-0.541576 -0.60288,-0.856267 1.07797,-2.46218 1.05993,-1.012683 3.37984,-3.988777 5.15536,-6.613543 l 3.22821,-4.772302 1.46291,1.40156 c 1.42333,1.363633 1.65437,1.401559 8.53807,1.401559 h 7.07515 l 2.33341,1.776863 c 4.21153,3.207013 13.63038,7.930875 15.81328,7.930875 2.64636,0 5.12664,1.491336 5.12664,3.082534 0,1.357138 0.24477,1.402906 3.77523,0.705895 2.42663,-0.479085 2.42729,-0.478791 5.39318,2.39568 4.19653,4.067176 6.84957,5.303227 9.91043,4.617273 1.95076,-0.437173 2.94761,-0.34013 5.48944,0.534386 1.70821,0.587709 3.18918,1.068563 3.29106,1.068563 0.10188,0 0.18523,-1.118086 0.18523,-2.484636 0,-2.128831 0.13292,-2.433629 0.9282,-2.12845 0.51051,0.195901 4.02892,1.308227 7.81868,2.471834 5.31738,1.632648 7.19387,2.000304 8.21936,1.610409 1.25742,-0.478066 1.37754,-0.350911 2.23333,2.363978 0.83188,2.639007 1.13742,2.983479 3.80804,4.293273 2.94079,1.4423 4.32484,1.672433 6.52009,1.084129 1.0402,-0.278762 1.21347,-0.687201 1.21347,-2.860397 v -2.535201 l 3.00693,-0.94785 c 2.92462,-0.921909 3.04947,-1.042688 4.56165,-4.413042 1.57608,-3.512792 2.5121,-4.156353 3.79569,-2.609722 0.46128,0.555801 1.21007,0.755451 2.13759,0.569946 1.06293,-0.212584 1.93916,0.13614 3.43011,1.365107 1.10138,0.907845 3.12621,2.052659 4.49962,2.544031 2.18241,0.780808 2.91838,1.500336 5.83973,5.709261 l 3.34261,4.815859 4.49113,1.509089 c 4.99275,1.677642 7.79555,3.906845 9.40801,7.482648 0.77367,1.715699 1.2965,2.159597 2.88959,2.453344 1.44759,0.266921 3.04839,1.42916 6.25955,4.544657 3.75494,3.643077 4.94169,4.437857 9.14974,6.127672 l 4.8352,1.941656 7.8105,-1.082532 c 6.99079,-0.968923 8.73466,-1.021895 16.6164,-0.504764 l 8.8059,0.577777 14.48992,-6.0122 14.48991,-6.012198 2.35012,1.171077 c 1.29257,0.644093 5.31504,4.109024 8.93882,7.699849 l 6.58871,6.528772 0.79031,-1.891483 c 0.43467,-1.040308 0.9475,-2.517772 1.13962,-3.283248 0.33913,-1.35122 0.51247,-1.402898 5.94887,-1.77344 l 5.59955,-0.381667 0.15509,-4.647562 0.15509,-4.647562 2.01654,-0.766044 c 1.64002,-0.623009 2.17124,-0.637659 2.84503,-0.07846 0.74148,0.615371 0.73019,0.796205 -0.10748,1.721818 -1.36329,1.506413 -0.0711,2.172975 3.48277,1.796578 2.83,-0.29973 2.84528,-0.293193 3.1758,1.359454 0.18268,0.913349 0.88821,2.024991 1.56786,2.470316 1.10867,0.726428 1.37742,0.716847 2.61369,-0.09318 1.34502,-0.881297 1.39102,-0.868463 1.92546,0.537199 0.30112,0.792035 0.54751,1.59324 0.54751,1.780455 0,0.187215 0.62799,1.246587 1.39554,2.354154 l 1.39554,2.013768 -0.85622,4.140247 c -1.14889,5.555441 -1.12754,5.845066 0.96775,13.123033 1.91597,6.65509 3.07796,9.310194 6.03739,13.795135 0.98872,1.49839 2.06263,3.923 2.38647,5.38804 0.46296,2.09444 1.3326,3.49477 4.06924,6.55249 3.26123,3.64384 3.48105,4.05354 3.49003,6.50471 0.0182,4.9576 1.01549,12.1616 1.86268,13.45457 0.76875,1.17327 1.22342,1.29604 4.79992,1.29604 3.20688,0 4.94182,0.36667 9.21461,1.94747 4.34631,1.60801 5.48867,1.84505 6.55355,1.35986 1.04881,-0.47787 1.28968,-0.99268 1.28968,-2.75645 0,-1.42272 0.24178,-2.16884 0.70282,-2.16884 0.44492,0 1.15678,1.92963 1.93988,5.25836 0.96271,4.09222 1.78166,6.09558 3.69279,9.03359 2.80413,4.31077 8.17995,11.02458 12.30741,15.37058 1.54941,1.63144 2.97817,3.50606 3.17507,4.16583 0.19815,0.66407 -0.0632,2.53566 -0.58543,4.19246 -0.89769,2.84778 -0.89791,3.27852 -0.004,8.88525 0.85406,5.35675 0.86339,6.0395 0.10247,7.51094 -0.46031,0.89022 -0.83697,1.98069 -0.83697,2.42327 0,0.44258 1.4615,2.45686 3.24772,4.47616 l 3.24773,3.67147 -0.33659,3.82181 -0.33654,3.82181 1.69368,0.70154 c 1.79075,0.74175 2.73731,2.00056 2.72151,3.61923 -0.005,0.53859 1.71298,4.49831 3.81832,8.79938 3.76434,7.69017 3.88552,7.8597 7.29208,10.20171 3.09596,2.12847 3.7597,2.93095 6.24498,7.55046 1.52951,2.84288 4.64424,7.95985 6.92173,11.37104 3.68042,5.51259 4.27885,6.77182 5.38251,11.3257 0.68294,2.81794 1.80779,7.10605 2.49963,9.52914 l 1.25796,4.40562 -2.42596,5.79036 c -3.42656,8.17873 -4.50401,16.72781 -2.49262,19.77804 0.94364,1.43101 0.94224,1.7325 -0.0423,8.89876 l -1.01904,7.41756 1.11741,2.70702 c 1.36831,3.31482 1.38163,3.6517 0.12868,3.25403 -0.54379,-0.17259 -2.03042,0.0537 -3.3037,0.50298 -3.18112,1.12237 -3.56954,1.05089 -4.33537,-0.798 -0.56628,-1.36713 -0.52956,-1.82736 0.23946,-3.00102 0.88324,-1.34799 0.77354,-4.19541 -0.18445,-4.78748 -0.78924,-0.48779 -8.24785,1.78581 -8.93322,2.72312 -0.64708,0.88493 -1.00119,0.74952 -4.8255,-1.84526 -2.26999,-1.54015 -4.34794,-2.80028 -4.6177,-2.80028 -0.26972,0 -1.61208,0.97078 -2.98297,2.15728 -1.3709,1.1865 -2.67815,2.15727 -2.90504,2.15727 -0.2269,0 -0.98658,-0.61106 -1.68823,-1.35792 l -1.27571,-1.35792 1.21261,-3.76494 c 1.17469,-3.6474 1.18272,-3.81547 0.25644,-5.38356 -1.20338,-2.03711 -1.80224,-2.05824 -1.80224,-0.0636 0,1.85374 -0.89937,2.20203 -5.71408,2.21282 -2.6143,0.006 -3.49031,0.23185 -4.27966,1.10406 -0.82052,0.90668 -1.41905,1.04273 -3.45433,0.78525 -6.02431,-0.76212 -5.88476,-0.69544 -7.94362,-3.7963 -2.32235,-3.49771 -3.58787,-3.7491 -6.65288,-1.32157 -1.12356,0.88988 -2.61465,1.62336 -3.31352,1.62996 -0.69889,0.007 -1.85827,0.46366 -2.57641,1.0157 l -1.30571,1.00372 2.51918,3.53031 c 1.38555,1.94167 2.51918,4.03771 2.51918,4.65786 0,0.62015 -0.60978,2.09349 -1.35506,3.2741 -1.21021,1.91709 -1.58495,2.14655 -3.50557,2.14655 -1.78164,0 -2.15051,0.18264 -2.15051,1.06479 0,0.63763 -0.64908,1.40044 -1.61796,1.90147 l -1.61796,0.83667 v -2.43051 c 0,-2.14282 -0.1596,-2.47056 -1.34843,-2.76894 -0.7653,-0.19208 -2.27804,0.0335 -3.49799,0.52164 -2.12062,0.84851 -2.16138,0.84203 -3.02814,-0.48081 -0.79092,-1.20711 -1.23854,-1.3409 -4.486,-1.3409 -3.41684,0 -3.70435,-0.10002 -5.44262,-1.89346 -1.00937,-1.04141 -2.8985,-2.40819 -4.19806,-3.0373 -2.31388,-1.12013 -2.42695,-1.12442 -5.45614,-0.20726 -2.62293,0.79416 -3.84317,0.85649 -8.02481,0.4099 -2.77855,-0.29674 -5.93987,-0.33168 -7.24122,-0.08 -1.27034,0.24565 -3.33828,0.45721 -4.59543,0.47012 -2.27051,0.0233 -2.28803,0.0387 -2.63095,2.3156 -0.29123,1.9336 -0.91947,2.84039 -4.01675,5.79767 l -3.67152,3.50557 -0.36867,3.65595 c -0.27512,2.72823 -0.61702,3.78885 -1.34736,4.17972 -1.39256,0.74527 -1.55539,0.68218 -2.12824,-0.82452 -0.55833,-1.46852 -1.05167,-1.54223 -5.79768,-0.8663 -3.22456,0.45925 -4.01406,-0.50354 -1.21346,-1.47983 0.88987,-0.31021 1.61795,-0.67724 1.61795,-0.81562 0,-0.7423 -5.25737,-3.04042 -6.95551,-3.04042 -1.77173,0 -2.0957,0.23783 -3.28198,2.40942 -1.13792,2.08307 -1.80901,2.61218 -4.95477,3.90645 -3.23219,1.32983 -3.60446,1.63297 -3.33311,2.71411 0.23473,0.93522 0.0734,1.2183 -0.69681,1.22235 -0.55125,0.003 -2.27641,0.59846 -3.83369,1.32348 -2.06358,0.96073 -2.83143,1.61746 -2.83143,2.42167 0,0.6069 -0.30336,1.10676 -0.67415,1.11081 -0.37078,0.004 -1.1657,0.13945 -1.7665,0.30089 -0.60079,0.16144 -1.21253,0.17334 -1.35943,0.0265 z"
       id="path41" />
  </g>
  <g
     id="g3047">
    <rect
       fill="white"
       opacity="0.75"
       x="4"
       y="320"
       width="286"
       height="36"
       id="rect3049" />
    <rect
       fill="black"
       x="8"
       y="324"
       width="278"
       height="8"
       id="rect3051" />
    <text
       fill="#000000"
       text-anchor="middle"
       font-size="24px"
       font-family="sans-serif"
       x="147"
       y="352"
       id="text3053"
       style="line-height:0%">50km</text>
  </g>
</svg>
